<?xml version="1.0" encoding="UTF-8"?> <svg xmlns="http://www.w3.org/2000/svg" id="Layer_1" data-name="Layer 1" viewBox="0 0 400 400"><defs><style>.cls-1{fill:#323031;}.cls-2{fill:red;}.cls-3{fill:#fff;}</style></defs><path class="cls-1" d="M224.79,103.11C245.42,100.23,337,72.89,337,72.89V28.27H69.12v96.58Z"></path><path class="cls-1" d="M181,297C160,300.08,69.12,327.36,69.12,327.36v44.37H337V275.07Z"></path><polygon class="cls-2" points="375 82.13 375 269.69 267.69 284.82 267.66 284.82 263.27 285.44 263.24 285.44 111.45 306.82 111.42 306.82 107.1 307.45 107.07 307.45 31.09 318.15 31.09 130.15 375 82.13"></polygon><path class="cls-3" d="M104.06,80.78H98.77V72.66c0-5.4,3.56-9,9.07-9h2.78V56.42h-1.84a11.48,11.48,0,0,0-10.45,6.51l-.67-6H87.21v6.17h4V80.78h-4V87h16.85Z"></path><path class="cls-3" d="M126.34,69.15c-6.73-.05-11,3.67-11,9.73,0,5.73,2.89,8.62,8.73,8.62a9.71,9.71,0,0,0,9-5.5l.78,5h10.18V80.78h-4V67.65c0-7.5-4.11-11.23-12.34-11.23a23.91,23.91,0,0,0-10,1.95V64.6a16.9,16.9,0,0,1,8-1.9c4.51,0,6.73,2,6.73,6v.56Zm.67,13q-3.84,0-3.84-3.84c0-2.45,1.67-3.89,4.56-3.89h4.84C132.57,79.22,130.07,82.11,127,82.11Z"></path><polygon class="cls-3" points="140.8 43.58 132.01 43.58 125.51 53.64 131.96 53.64 140.8 43.58"></polygon><path class="cls-3" d="M161.75,87.5a10.26,10.26,0,0,0,9.67-5.67l.84,5.12h10.12V80.78h-3.95V43.58H166.14v6.17h4.73v11.4a10.18,10.18,0,0,0-9.12-4.73A10.52,10.52,0,0,0,153,60.7c-2.17,2.89-3.28,6.67-3.28,11.4s1.11,8.34,3.33,11.18A10.38,10.38,0,0,0,161.75,87.5Zm2.45-24.63c4,0,6.67,3.67,6.67,9.06S168.2,81,164.2,81s-6.62-3.62-6.62-9S160.25,62.87,164.2,62.87Z"></path><rect class="cls-3" x="192.37" y="43.58" width="7.73" height="8.9"></rect><polygon class="cls-3" points="204.1 80.78 200.1 80.78 200.1 56.98 188.59 56.98 188.59 63.15 192.54 63.15 192.54 80.78 188.59 80.78 188.59 86.95 204.1 86.95 204.1 80.78"></polygon><polygon class="cls-3" points="235.95 43.58 227.17 43.58 220.66 53.64 227.11 53.64 235.95 43.58"></polygon><path class="cls-3" d="M224.61,87.5a13.72,13.72,0,0,0,10.45-4.28c2.61-2.83,3.95-6.62,3.95-11.29s-1.34-8.39-3.95-11.23a13.76,13.76,0,0,0-10.45-4.28,13.58,13.58,0,0,0-10.45,4.28c-2.67,2.84-4,6.62-4,11.23s1.34,8.46,4,11.29A13.55,13.55,0,0,0,224.61,87.5Zm-.06-24.63c4,0,6.62,3.67,6.62,9.06S228.55,81,224.55,81,218,77.44,218,71.93,220.61,62.87,224.55,62.87Z"></path><path class="cls-3" d="M128.52,210.48c-2.78,2.09-25.8,1.8-25.8,1.8s1.24,17.5,2.3,40.05c.7,14.66,4.72,40,6.43,54.49h0l-4.32.63h0c-8-31.29-18.39-92.29-18.39-92.29s-28.25,5-43.16,6.43c-6,.59-10.89,1.06-14.44.44-5.37-.91-7.52-4.38-5.08-13.81a56.34,56.34,0,0,1,5.08-12.32c7.61-14.25,21.42-31,34.51-43.45,17.17-16.27,33.84-26.06,36-20.11,3,8.41-7,19.12-10.86,23.65s-6.1.73-4.31-2.92c0,0,4.82-7.42,3.4-9.61s-15.57,10.41-27.71,23.42S34.59,205.66,42.05,209.1s41.85-1.87,46.05-2.71c.11-3.22,1.68-14.8,6.87-21.27s10.12,5.88,16,11C121.07,205,132.36,207.56,128.52,210.48Z"></path><path class="cls-3" d="M213.72,217.29c3.79-3.26,11.42-8.3,6.26-1.18S191.6,249.64,175.3,251c-10.08.86-15.12-24.06-15-29.57-5.8,5.23-29.84,32.21-38.84,35.55s4.36-29.86,12.76-45.31S157,181,163.8,182.9s3.61,15.1-4.19,17.36-4.75-5-4.75-5-8.59,6-15.79,22.34S126.33,247,132.8,240.94s28.65-30.16,33.49-35.65,9.72-8.17,9.48-.42-4.76,28.89,3.15,33.69C188.14,244.17,213.72,217.29,213.72,217.29Z"></path><path class="cls-3" d="M242.72,131.45c-1.81,3.66.35,7.48,4.28,2.94s13.9-15.25,10.87-23.64c-2.16-6-18.83,3.83-36,20.09s-35.55,40-39.6,55.76,4.65,14.85,19.55,13.39S245,193.56,245,193.56s12.55,74.18,20.78,100.89c.21.7,2.86,1,2.61-2.65-.81-11.78-6.23-43.82-7-61.07-1.07-22.55-2.33-40.08-2.33-40.08s23.05.29,25.8-1.78c3.86-2.91-7.43-5.52-17.58-14.38-5.84-5.09-10.8-17.43-16-11s-6.74,18-6.87,21.29c-4.2.83-38.59,6.1-46.05,2.68s8-29.17,20.08-42.2,26.29-25.6,27.71-23.42S242.72,131.45,242.72,131.45Z"></path><path class="cls-3" d="M375,183.52c-8.11,7.55-22.66,19.59-29.1,15.68-7.9-4.81-3.38-25.95-3.14-33.7s-4.64-5.07-9.48.42-27,29.63-33.5,35.65-.92-7,6.27-23.39,15.79-22.34,15.79-22.34-3,7.32,4.75,5,11-15.42,4.19-17.36-21.21,13.35-29.6,28.79S279.42,221,288.42,217.63s33-30.32,38.83-35.55c-.1,5.51,4.94,30.43,15,29.57S365.5,200,375,190.4Z"></path><path class="cls-3" d="M248.34,371.73c12.36-32.3,51.26-75.48,88.61-85.39v5c-19.69,5.68-60.73,34-74.34,80.38Z"></path><path class="cls-3" d="M292.65,371.73c3.68-25,25.59-43.39,44.3-46.37V330s-30.2,9-34.19,41.76Z"></path><path class="cls-3" d="M323.58,371.73c1.25-8.47,7-14.73,13.37-15.74v15.74Z"></path><path class="cls-3" d="M267.7,284.82h0l-.09,0c-31.77,26.29-57.92,61.5-67.72,86.89h22.07c15.37-42.32,39.14-70.84,61.39-89.11Z"></path></svg> 