<?xml version="1.0" encoding="UTF-8"?>
<svg width="320px" height="320px" viewBox="0 0 320 320" version="1.1" xmlns="http://www.w3.org/2000/svg" xmlns:xlink="http://www.w3.org/1999/xlink">
    <title>Logo-inverted 2</title>
    <defs>
        <polygon id="path-1" points="0 320 320 320 320 0 0 0"></polygon>
    </defs>
    <g id="Toolkit" stroke="none" stroke-width="1" fill="none" fill-rule="evenodd">
        <g id="Logos" transform="translate(-420.000000, -60.000000)">
            <g id="Group" transform="translate(420.000000, 60.000000)">
                <path d="M213.2919,117.9238 C202.5959,110.1978 191.6559,104.3218 181.6909,104.359617 C180.3529,104.359617 179.0319,104.4618 177.7269,104.6738 C171.7439,108.6268 165.7709,110.3708 160.0429,110.3658 C159.9289,110.3658 159.8179,110.3608 159.7089,110.3608 C159.5959,110.3608 159.4859,110.3658 159.3749,110.3658 C153.6459,110.3708 147.6679,108.6268 141.6899,104.6738 C140.3839,104.4618 139.0599,104.359617 137.7229,104.359617 C127.7599,104.3218 116.8209,110.1978 106.1239,117.9238 C95.4119,125.6298 84.9779,135.0478 75.5289,141.6738 C72.0109,144.1308 68.6359,146.2268 65.3569,147.6938 C70.5339,149.9998 75.8549,153.9378 81.1309,158.7368 C89.0329,165.9708 96.7259,175.2608 102.8899,184.4328 L102.9059,184.4638 L102.9209,184.4868 C107.2389,191.3208 115.3599,196.6348 125.5949,200.1708 C135.6309,203.6498 147.6229,205.4008 159.7089,205.4618 C171.7899,205.4008 183.7829,203.6498 193.8229,200.1708 C204.0539,196.6348 212.1759,191.3208 216.4929,184.4868 L216.5089,184.4638 L216.5239,184.4328 C222.6899,175.2608 230.3829,165.9708 238.2829,158.7368 C243.5599,153.9378 248.8809,149.9998 254.0579,147.6938 C250.7789,146.2268 247.4039,144.1308 243.8879,141.6738 C234.4369,135.0478 224.0049,125.6298 213.2919,117.9238" id="Fill-1" fill="#000000"></path>
                <polygon id="Fill-3" fill="#FFFFFF" points="94.6278 99.2354 94.6278 139.4014 94.8058 139.4014 107.0838 99.2354 124.7038 99.2354 108.6888 144.9724 126.6618 203.9074 107.7978 203.9074 98.0988 167.4004 94.6278 176.1974 94.6278 203.9074 78.0748 203.9074 78.0748 124.8154"></polygon>
                <mask id="mask-2" fill="white">
                    <use xlink:href="#path-1"></use>
                </mask>
                <g id="Clip-6"></g>
                <polygon id="Fill-5" fill="#FFFFFF" mask="url(#mask-2)" points="126.662 207.171 146.905 207.171 146.905 99.235 126.662 99.235"></polygon>
                <path d="M178.2714,126.9419 C178.2714,123.8149 177.8514,121.1499 177.0184,118.9499 C176.1814,116.7529 174.8964,115.6549 173.1614,115.6549 C171.2344,115.6549 169.8204,116.6069 168.9214,118.5149 C168.0204,120.4159 167.5704,122.5439 167.5704,124.8879 C167.5704,128.3119 168.2924,131.0249 169.7404,133.0279 C171.1864,135.0279 173.0004,136.7659 175.1874,138.2309 C177.3684,139.6949 179.7164,141.1869 182.2214,142.6999 C184.7304,144.2199 187.0734,146.1969 189.2594,148.6379 C191.4434,151.0809 193.2604,154.2799 194.7064,158.2369 C196.1534,162.1979 196.8754,167.3529 196.8754,173.7049 C196.8754,184.8469 194.7854,192.9339 190.6094,197.9659 C186.4324,203.0009 180.3914,205.5179 172.4874,205.5179 C168.7584,205.5179 165.4644,205.0549 162.6104,204.1249 C159.7474,203.1959 157.3354,201.5879 155.3774,199.2849 C153.4164,196.9909 151.9254,193.9879 150.8954,190.2699 C149.8684,186.5569 149.3554,181.9659 149.3554,176.4919 L149.3554,172.8279 L166.7064,172.8279 L166.7064,175.3209 C166.7064,179.8179 167.2494,182.9689 168.3414,184.7749 C169.4344,186.5829 170.8504,187.4859 172.5844,187.4859 C174.4494,187.4859 175.8764,186.5099 176.8744,184.5549 C177.8694,182.6039 178.3684,180.2079 178.3684,177.3689 C178.3684,173.9529 177.6774,171.2399 176.2964,169.2349 C174.9124,167.2309 173.1794,165.5189 171.0904,164.1069 C169.0024,162.6909 166.7364,161.2459 164.2944,159.7799 C161.8494,158.3119 159.5874,156.4059 157.4994,154.0619 C155.4094,151.7149 153.6744,148.6379 152.2934,144.8239 C150.9104,141.0149 150.2214,136.0269 150.2214,129.8739 C150.2214,119.2229 152.0844,111.1069 155.8134,105.5379 C159.5354,99.9649 165.1944,97.1819 172.7774,97.1819 C180.6144,97.1819 186.2864,99.7479 189.7894,104.8799 C193.2914,110.0099 195.0424,118.1959 195.0424,129.4349 L178.2714,129.4349 L178.2714,126.9419 Z" id="Fill-7" fill="#FFFFFF" mask="url(#mask-2)"></path>
                <path d="M223.8368,131.2466 C223.8368,128.2906 223.4468,125.7706 222.6778,123.6956 C221.9048,121.6156 220.7188,120.5786 219.1178,120.5786 C217.3378,120.5786 216.0318,121.4776 215.2008,123.2816 C214.3698,125.0786 213.9568,127.0886 213.9568,129.3086 C213.9568,132.5386 214.6228,135.1056 215.9578,136.9966 C217.2918,138.8926 218.9678,140.5346 220.9868,141.9166 C223.0018,143.3026 225.1688,144.7116 227.4828,146.1426 C229.7968,147.5736 231.9608,149.4446 233.9778,151.7516 C235.9958,154.0636 237.6708,157.0856 239.0078,160.8286 C240.3418,164.5726 241.0098,169.4436 241.0098,175.4476 C241.0098,185.9776 239.0798,193.6256 235.2258,198.3836 C231.3688,203.1376 225.7908,205.5176 218.4948,205.5176 C215.0518,205.5176 212.0128,205.0796 209.3748,204.2026 C206.7348,203.3256 204.5088,201.8006 202.7008,199.6276 C200.8898,197.4546 199.5098,194.6186 198.5628,191.1026 C197.6098,187.5956 197.1398,183.2566 197.1398,178.0796 L197.1398,174.6186 L213.1558,174.6186 L213.1558,176.9756 C213.1558,181.2246 213.6568,184.2036 214.6678,185.9106 C215.6788,187.6186 216.9828,188.4746 218.5818,188.4746 C220.3038,188.4746 221.6238,187.5536 222.5428,185.7026 C223.4618,183.8576 223.9228,181.5956 223.9228,178.9096 C223.9228,175.6796 223.2848,173.1186 222.0098,171.2216 C220.7318,169.3296 219.1338,167.7096 217.2068,166.3746 C215.2738,165.0386 213.1858,163.6706 210.9318,162.2846 C208.6748,160.9016 206.5848,159.0986 204.6588,156.8836 C202.7258,154.6626 201.1278,151.7516 199.8528,148.1516 C198.5728,144.5496 197.9398,139.8346 197.9398,134.0196 C197.9398,123.9486 199.6598,116.2826 203.1008,111.0166 C206.5398,105.7496 211.7608,103.1196 218.7618,103.1196 C225.9998,103.1196 231.2348,105.5406 234.4678,110.3926 C237.7008,115.2436 239.3188,122.9816 239.3188,133.6016 L223.8368,133.6016 L223.8368,131.2466 Z" id="Fill-8" fill="#FFFFFF" mask="url(#mask-2)"></path>
                <path d="M260.2743,150.1201 C260.2703,150.1201 260.2653,150.1161 260.2633,150.1161 C254.8293,151.2901 247.9503,155.6831 241.1923,161.9151 C233.6273,168.8401 226.1003,177.9161 220.1183,186.8191 C214.9933,194.8391 206.0043,200.5121 195.2263,204.2461 C184.6183,207.9171 172.2053,209.7061 159.7093,209.7691 C147.2103,209.7061 134.7993,207.9171 124.1863,204.2461 C113.4103,200.5121 104.4213,194.8391 99.2963,186.8191 C93.3133,177.9161 85.7903,168.8401 78.2253,161.9151 C71.3593,155.5871 64.3723,151.1521 58.9003,150.0631 C58.3813,150.0491 57.8903,149.9741 57.4423,149.8511 C57.4063,149.8481 57.3643,149.8431 57.3273,149.8391 L57.3273,149.8171 C56.0073,149.4241 55.1003,148.6071 55.1003,147.6601 C55.1003,146.3291 56.8893,145.2491 59.0973,145.2491 C59.1453,145.2491 59.1933,145.2521 59.2413,145.2521 C61.9823,144.6371 65.1693,143.1801 68.6293,141.0591 C72.9193,138.4431 77.6323,134.8711 82.5923,130.9141 C92.5283,122.9981 103.4673,113.5771 114.7423,107.2131 C122.2513,102.9701 129.9623,100.0631 137.7223,100.0511 C139.4513,100.0511 141.1773,100.1911 142.8923,100.5051 L143.3363,100.5891 L143.7113,100.8411 C149.2353,104.5541 154.4133,106.0481 159.3753,106.0571 C159.4863,106.0571 159.5953,106.0441 159.7093,106.0421 C159.8183,106.0441 159.9283,106.0571 160.0433,106.0571 C165.0053,106.0481 170.1813,104.5541 175.7033,100.8411 L176.0793,100.5891 L176.5233,100.5051 C178.2403,100.1911 179.9623,100.0511 181.6913,100.0511 C189.4523,100.0631 197.1653,102.9701 204.6733,107.2131 C215.9483,113.5771 226.8843,122.9981 236.8223,130.9141 C241.7833,134.8711 246.4953,138.4431 250.7873,141.0591 C254.3423,143.2371 257.6083,144.7161 260.3983,145.3001 C260.9823,145.3121 261.5373,145.3971 262.0293,145.5421 C262.0413,145.5441 262.0543,145.5461 262.0663,145.5461 L262.0663,145.5541 C263.3723,145.9531 264.2743,146.7661 264.2743,147.7071 C264.2743,149.0391 262.4823,150.1201 260.2743,150.1201 M266.9583,147.0521 L266.7763,146.9611 L266.6123,146.8361 C253.3293,136.6761 234.7683,115.3861 211.4973,83.0381 C205.9543,76.9731 200.6913,72.2481 195.6623,69.1001 C190.6053,65.9071 185.8303,64.3081 181.1143,64.3081 C174.8483,64.3141 168.3753,67.1251 161.1763,73.7691 L159.8773,74.9741 L159.7093,74.8521 L159.5353,74.9741 L158.2383,73.7691 C151.0383,67.1251 144.5693,64.3141 138.2983,64.3081 C133.5853,64.3081 128.8103,65.9071 123.7533,69.1001 C118.7253,72.2481 113.4623,76.9731 107.9173,83.0381 C84.6503,115.3861 66.0863,136.6761 52.8033,146.8361 L52.6373,146.9611 L52.4593,147.0521 C51.4313,147.5831 51.3033,148.0961 51.3081637,148.2451 C51.3153,148.3761 51.3523,148.8151 52.4783,149.4351 L52.8033,149.6011 L53.0553,149.8621 C68.2993,165.9391 74.1963,185.6981 80.0133,202.4211 L80.0173,202.4381 L80.0323,202.4801 C84.6283,216.9851 95.5623,228.2561 110.0263,235.9621 C124.2563,243.5351 141.8563,247.5601 159.7093,247.6761 C177.5603,247.5601 195.1583,243.5351 209.3873,235.9621 C223.8543,228.2561 234.7903,216.9851 239.3853,202.4801 L239.3963,202.4381 L239.4023,202.4211 C245.2203,185.6981 251.1153,165.9391 266.3583,149.8621 L266.6123,149.6011 L266.9343,149.4351 C268.0643,148.8151 268.0983,148.3761 268.10839,148.2451 C268.1123,148.0961 267.9873,147.5831 266.9583,147.0521" id="Fill-9" fill="#F80807" mask="url(#mask-2)"></path>
                <path d="M266.9345,149.4355 L266.6125,149.6015 L266.3585,149.8625 C251.1155,165.9395 245.2205,185.6975 239.4025,202.4205 L239.3965,202.4385 L239.3855,202.4805 C234.7895,216.9855 223.8545,228.2555 209.3875,235.9615 C195.1585,243.5355 177.5605,247.5605 159.7085,247.6755 C141.8565,247.5605 124.2565,243.5355 110.0265,235.9615 C95.5625,228.2555 84.6275,216.9855 80.0325,202.4805 L80.0175,202.4385 L80.0135,202.4205 C74.1965,185.6975 68.2995,165.9395 53.0555,149.8625 L52.8035,149.6015 L52.4785,149.4355 C51.3525,148.8145 51.3155,148.3765 51.3083637,148.2445 C51.3035,148.0955 51.4315,147.5835 52.4585,147.0525 L52.6375,146.9605 L52.8035,146.8355 C66.0855,136.6765 84.6505,115.3855 107.9165,83.0385 C113.4615,76.9725 118.7255,72.2485 123.7535,69.1005 C128.8105,65.9075 133.5845,64.3085 138.2985,64.3085 C144.5695,64.3135 151.0385,67.1255 158.2385,73.7695 L159.5355,74.9745 L159.7085,74.8525 L159.8765,74.9745 L161.1765,73.7695 C168.3745,67.1255 174.8485,64.3135 181.1145,64.3085 C185.8305,64.3085 190.6055,65.9075 195.6625,69.1005 C200.6915,72.2485 205.9545,76.9725 211.4965,83.0385 C234.7685,115.3855 253.3295,136.6765 266.6125,146.8355 L266.7765,146.9605 L266.9575,147.0525 C267.9875,147.5835 268.1125,148.0955 268.10859,148.2445 C268.0985,148.3765 268.0645,148.8145 266.9345,149.4355 M269.0785,143.2865 C256.4835,133.6385 237.9725,112.5105 214.9225,80.4175 L214.8515,80.3125 L214.7695,80.2235 C209.0225,73.9395 203.4965,68.9255 197.9565,65.4425 C192.4305,61.9595 186.8305,59.9975 181.1145,59.9994881 C173.9565,59.9925 166.8665,63.0755 159.7085,69.3045 C152.5485,63.0755 145.4565,59.9925 138.2985,59.9994881 C132.5855,59.9975 126.9865,61.9595 121.4605,65.4425 C115.9165,68.9255 110.3915,73.9395 104.6455,80.2235 L104.5655,80.3125 L104.4925,80.4175 C81.4445,112.5105 62.9325,133.6385 50.3375,143.2865 C48.4275,144.2945 47.0115,146.0795 46.9994948,148.2445 C46.9965,150.2635 48.2925,152.0315 50.1695,153.0875 C64.3745,168.1815 70.1215,187.0135 75.9175,203.7805 C80.9295,219.6005 92.8155,231.6875 108.0005,239.7605 C122.9815,247.7275 141.2155,251.8655 159.7085,251.9895 C178.1995,251.8655 196.4355,247.7275 211.4135,239.7605 C226.5985,231.6875 238.4835,219.6005 243.4975,203.7805 C249.2945,187.0135 255.0385,168.1815 269.2455,153.0875 C271.1215,152.0315 272.4175,150.2635 272.414505,148.2445 C272.4075,146.0795 270.9915,144.2945 269.0785,143.2865" id="Fill-10" fill="#000000" mask="url(#mask-2)"></path>
                <path d="M238.288,158.7368 C230.389,165.9708 222.695,175.2608 216.53,184.4328 L216.516,184.4638 L216.498,184.4868 C212.182,191.3208 204.06,196.6348 193.826,200.1708 C183.791,203.6498 171.797,205.4008 159.714,205.4618 C147.631,205.4008 135.637,203.6498 125.6,200.1708 C115.367,196.6348 107.247,191.3208 102.927,184.4868 L102.912,184.4638 L102.896,184.4328 C96.73,175.2608 89.036,165.9708 81.138,158.7368 C75.86,153.9378 70.54,149.9998 65.363,147.6938 C68.642,146.2268 72.016,144.1308 75.533,141.6738 C84.983,135.0478 95.417,125.6298 106.13,117.9238 C116.824,110.1978 127.763,104.3218 137.729,104.359617 C139.065,104.359617 140.386,104.4618 141.695,104.6738 C147.677,108.6268 153.65,110.3708 159.378,110.3658 C159.491,110.3658 159.602,110.3608 159.714,110.3608 C159.826,110.3608 159.934,110.3658 160.046,110.3658 C165.774,110.3708 171.753,108.6268 177.73,104.6738 C179.039,104.4618 180.361,104.359617 181.696,104.359617 C191.662,104.3218 202.6,110.1978 213.297,117.9238 C224.008,125.6298 234.444,135.0478 243.892,141.6738 C247.408,144.1308 250.783,146.2268 254.061,147.6938 C248.886,149.9998 243.566,153.9378 238.288,158.7368 M262.074,145.5538 L262.074,145.5458 C262.061,145.5458 262.048,145.5448 262.035,145.5428 C261.539,145.3978 260.991,145.3118 260.406,145.2998 C257.613,144.7158 254.348,143.2368 250.792,141.0588 C246.5,138.4428 241.789,134.8708 236.829,130.9148 C226.893,122.9988 215.954,113.5768 204.678,107.2128 C197.17,102.9698 189.455,100.0628 181.696,100.0508 C179.972,100.0508 178.245,100.1908 176.529,100.5058 L176.083,100.5888 L175.711,100.8408 C170.187,104.5538 165.01,106.0478 160.046,106.0578 C159.934,106.0578 159.826,106.0448 159.714,106.0428 C159.602,106.0448 159.491,106.0578 159.378,106.0578 C154.419,106.0478 149.24,104.5538 143.717,100.8408 L143.342,100.5888 L142.899,100.5058 C141.183,100.1908 139.457,100.0508 137.729,100.0508 C129.97,100.0628 122.257,102.9698 114.749,107.2128 C103.474,113.5768 92.532,122.9988 82.6,130.9148 C77.636,134.8708 72.925,138.4428 68.636,141.0588 C65.173,143.1798 61.987,144.6368 59.246,145.2518 C59.198,145.2518 59.153,145.2488 59.103,145.2488 C56.895,145.2488 55.106,146.3288 55.106,147.6598 C55.106,148.6068 56.016,149.4238 57.335,149.8168 L57.335,149.8398 C57.373,149.8428 57.409,149.8478 57.446,149.8508 C57.895,149.9748 58.387,150.0488 58.906,150.0628 C64.375,151.1518 71.363,155.5878 78.228,161.9158 C85.794,168.8408 93.319,177.9168 99.302,186.8188 C104.429,194.8388 113.414,200.5118 124.188,204.2458 C134.803,207.9168 147.217,209.7058 159.714,209.7698 C172.209,209.7058 184.622,207.9168 195.235,204.2458 C206.012,200.5118 215,194.8388 220.122,186.8188 C226.106,177.9168 233.632,168.8408 241.196,161.9158 C247.957,155.6838 254.838,151.2898 260.266,150.1158 L260.279,150.1198 C262.487,150.1198 264.278,149.0388 264.278,147.7078 C264.278,146.7658 263.379,145.9538 262.074,145.5538" id="Fill-11" fill="#000000" mask="url(#mask-2)"></path>
                <path d="M309.9999,229.999 C309.9999,245.464 297.4639,257.998 281.9989,257.998 C266.5359,257.998 253.9999,245.464 253.9999,229.999 C253.9999,214.538 266.5359,202 281.9989,202 C297.4639,202 309.9999,214.538 309.9999,229.999" id="Fill-12" fill="#FFFFFF" mask="url(#mask-2)"></path>
                <path d="M275.9501,223.3057 L269.9541,223.3057 C268.5661,223.3057 268.0641,223.7797 268.0641,225.3177 L268.0641,227.9727 L275.7151,227.9727 C276.0371,227.9727 276.3061,228.2387 276.3061,228.5627 L276.3061,231.3697 C276.3061,231.6917 276.0371,231.9587 275.7151,231.9587 L268.0641,231.9587 L268.0641,240.5827 C268.0641,240.9087 267.7981,241.1707 267.4731,241.1707 L263.6351,241.1707 C263.3101,241.1707 263.0441,240.9087 263.0441,240.5827 L263.0441,225.3177 C263.0441,219.9407 266.4421,218.9957 270.2511,218.9957 C273.4391,218.9957 274.9171,219.2297 275.9501,219.3787 C276.3621,219.4377 276.5441,219.5857 276.5441,219.9697 L276.5441,222.7157 C276.5441,223.0417 276.2721,223.3057 275.9501,223.3057" id="Fill-13" fill="#000000" mask="url(#mask-2)"></path>
                <path d="M299.7489,241.1709 L295.8509,241.1709 C295.5849,241.1709 295.3789,240.9079 295.3789,240.5829 L295.3789,228.2679 C295.3789,228.0599 295.2899,228.0309 295.2309,228.0309 C295.1419,228.0309 295.0859,228.0909 294.9949,228.2379 L292.3359,233.1099 C292.1299,233.4659 291.8339,233.6129 291.4479,233.6129 L289.0879,233.6129 C288.7009,233.6129 288.4089,233.4659 288.2019,233.1099 L285.5459,228.2379 C285.4549,228.0909 285.3949,228.0309 285.3069,228.0309 C285.2469,228.0309 285.1609,228.0599 285.1609,228.2679 L285.1609,240.5829 C285.1609,240.9079 284.9519,241.1709 284.6859,241.1709 L280.7889,241.1709 C280.5519,241.1709 280.2849,241.0859 280.2849,240.7609 L280.2849,220.2339 C280.2849,219.6139 280.7289,219.2299 281.3499,219.2299 L284.1269,219.2299 C284.7459,219.2299 285.1609,219.5259 285.4239,220.0259 L289.9429,228.4429 C290.0619,228.6829 290.1499,228.8289 290.2699,228.8289 C290.3879,228.8289 290.4729,228.6829 290.5929,228.4429 L295.1109,220.0259 C295.3789,219.5259 295.7929,219.2299 296.4119,219.2299 L299.1889,219.2299 C299.8069,219.2299 300.2489,219.6419 300.2489,220.2639 L300.2489,240.7609 C300.2489,241.0859 299.9859,241.1709 299.7489,241.1709" id="Fill-14" fill="#000000" mask="url(#mask-2)"></path>
                <path d="M62.2382,288.6855 L63.4572,283.4665 L58.9242,283.4665 L57.6672,288.6855 L62.2382,288.6855 Z M73.0952,283.4665 L67.5332,283.4665 L66.3142,288.6855 L71.3042,288.6855 L71.3042,292.4955 L65.4002,292.4955 L63.6472,299.6195 L59.5332,299.6195 L61.3242,292.4955 L56.7522,292.4955 L55.0382,299.6195 L50.9242,299.6195 L52.6752,292.4955 L48.4092,292.4955 L48.4092,288.6855 L53.5912,288.6855 L54.8472,283.4665 L50.2002,283.4665 L50.2002,279.8855 L55.7232,279.8855 L57.5142,272.5715 L61.6292,272.5715 L59.8002,279.8855 L64.3722,279.8855 L66.1242,272.5715 L70.2382,272.5715 L68.4482,279.8855 L73.0952,279.8855 L73.0952,283.4665 Z" id="Fill-15" fill="#FFFFFF" mask="url(#mask-2)"></path>
                <path d="M78.2382,281.7539 L74.5812,281.7539 C74.2002,281.7539 73.8952,281.4109 73.8952,281.0299 L73.8952,278.6299 C73.8952,278.4789 74.0092,278.1739 74.1242,278.0599 L79.6852,273.7169 L83.1902,273.7169 C83.5712,273.7169 83.8752,274.0599 83.8752,274.4409 L83.8752,298.8959 C83.8752,299.2759 83.5712,299.6189 83.1902,299.6189 L78.9622,299.6189 C78.5432,299.6189 78.2382,299.2759 78.2382,298.8959 L78.2382,281.7539 Z" id="Fill-16" fill="#FFFFFF" mask="url(#mask-2)"></path>
                <path d="M95.8378,273.6787 C95.8378,273.2977 96.1808,272.9547 96.5618,272.9547 L101.0948,272.9547 C101.5138,272.9547 101.8178,273.2977 101.8178,273.6787 L101.8178,283.2787 L112.7128,283.2787 L112.7128,273.6787 C112.7128,273.2977 113.0178,272.9547 113.4368,272.9547 L117.9698,272.9547 C118.3498,272.9547 118.6928,273.2977 118.6928,273.6787 L118.6928,298.8957 C118.6928,299.2767 118.3498,299.6187 117.9698,299.6187 L113.4368,299.6187 C113.0178,299.6187 112.7128,299.2767 112.7128,298.8957 L112.7128,288.8767 L101.8178,288.8767 L101.8178,298.8957 C101.8178,299.2767 101.5138,299.6187 101.0948,299.6187 L96.5618,299.6187 C96.1808,299.6187 95.8378,299.2767 95.8378,298.8957 L95.8378,273.6787 Z" id="Fill-17" fill="#FFFFFF" mask="url(#mask-2)"></path>
                <path d="M123.7235,273.6787 C123.7235,273.2977 124.0665,272.9547 124.4475,272.9547 L129.0185,272.9547 C129.3995,272.9547 129.7425,273.2977 129.7425,273.6787 L129.7425,298.8957 C129.7425,299.2767 129.3995,299.6187 129.0185,299.6187 L124.4475,299.6187 C124.0665,299.6187 123.7235,299.2767 123.7235,298.8957 L123.7235,273.6787 Z" id="Fill-18" fill="#FFFFFF" mask="url(#mask-2)"></path>
                <path d="M138.1991,278.5547 L132.7521,278.5547 C132.3331,278.5547 132.0281,278.2117 132.0281,277.8297 L132.0281,273.6787 C132.0281,273.2977 132.3331,272.9547 132.7521,272.9547 L149.6651,272.9547 C150.0841,272.9547 150.3881,273.2977 150.3881,273.6787 L150.3881,277.8297 C150.3881,278.2117 150.0841,278.5547 149.6651,278.5547 L144.2181,278.5547 L144.2181,298.8957 C144.2181,299.2767 143.8751,299.6187 143.4941,299.6187 L138.9231,299.6187 C138.5421,299.6187 138.1991,299.2767 138.1991,298.8957 L138.1991,278.5547 Z" id="Fill-19" fill="#FFFFFF" mask="url(#mask-2)"></path>
                <path d="M171.1894,284.3447 C172.7514,284.3447 174.0854,282.8977 174.0854,281.2967 C174.0854,279.6977 172.7514,278.4027 171.1894,278.4027 L165.5514,278.4027 L165.5514,284.3447 L171.1894,284.3447 Z M159.5714,273.6787 C159.5714,273.2977 159.8764,272.9547 160.2944,272.9547 L171.6844,272.9547 C176.2554,272.9547 179.9884,276.6497 179.9884,281.1827 C179.9884,284.6877 177.6654,287.5057 174.3514,288.8387 L179.5694,298.5147 C179.8354,299.0097 179.5694,299.6187 178.9214,299.6187 L173.8554,299.6187 C173.5504,299.6187 173.3224,299.4287 173.2464,299.2767 L168.1804,289.1827 L165.5514,289.1827 L165.5514,298.8957 C165.5514,299.2767 165.2094,299.6187 164.8274,299.6187 L160.2944,299.6187 C159.8764,299.6187 159.5714,299.2767 159.5714,298.8957 L159.5714,273.6787 Z" id="Fill-20" fill="#FFFFFF" mask="url(#mask-2)"></path>
                <path d="M195.7987,290.4775 L192.9037,284.1925 L192.8657,284.1925 L190.0097,290.4775 L195.7987,290.4775 Z M180.1437,298.6285 L192.0667,272.9925 C192.1807,272.7645 192.4467,272.5745 192.7137,272.5745 L193.0947,272.5745 C193.3607,272.5745 193.6277,272.7645 193.7417,272.9925 L205.6647,298.6285 C205.8937,299.1235 205.5887,299.6195 205.0177,299.6195 L200.7887,299.6195 C200.1037,299.6195 199.7987,299.3905 199.4557,298.6665 L198.0847,295.6575 L187.7237,295.6575 L186.3527,298.7055 C186.1617,299.1625 185.7417,299.6195 184.9817,299.6195 L180.7907,299.6195 C180.2197,299.6195 179.9147,299.1235 180.1437,298.6285 L180.1437,298.6285 Z" id="Fill-21" fill="#FFFFFF" mask="url(#mask-2)"></path>
                <path d="M216.8661,293.9814 C221.1711,293.9814 224.2941,290.5914 224.2941,286.2494 C224.2941,281.9444 221.1711,278.5544 216.8661,278.5544 L213.2091,278.5544 L213.2091,293.9814 L216.8661,293.9814 Z M207.2671,273.6784 C207.2671,273.2974 207.5711,272.9554 207.9521,272.9554 L217.2471,272.9554 C224.5981,272.9554 230.6171,278.9354 230.6171,286.2494 C230.6171,293.6384 224.5981,299.6194 217.2471,299.6194 L207.9521,299.6194 C207.5711,299.6194 207.2671,299.2764 207.2671,298.8954 L207.2671,273.6784 Z" id="Fill-22" fill="#FFFFFF" mask="url(#mask-2)"></path>
                <path d="M233.7431,273.6787 C233.7431,273.2977 234.0861,272.9547 234.4671,272.9547 L239.0381,272.9547 C239.4191,272.9547 239.7621,273.2977 239.7621,273.6787 L239.7621,298.8957 C239.7621,299.2767 239.4191,299.6187 239.0381,299.6187 L234.4671,299.6187 C234.0861,299.6187 233.7431,299.2767 233.7431,298.8957 L233.7431,273.6787 Z" id="Fill-23" fill="#FFFFFF" mask="url(#mask-2)"></path>
                <path d="M256.5224,293.9053 C260.7124,293.9053 264.1404,290.4773 264.1404,286.3253 C264.1404,282.1343 260.7124,278.6693 256.5224,278.6693 C252.3714,278.6693 248.9424,282.1343 248.9424,286.3253 C248.9424,290.4773 252.3714,293.9053 256.5224,293.9053 M256.5224,272.5743 C264.1404,272.5743 270.2364,278.7073 270.2364,286.3253 C270.2364,293.9433 264.1404,300.0003 256.5224,300.0003 C248.9044,300.0003 242.8474,293.9433 242.8474,286.3253 C242.8474,278.7073 248.9044,272.5743 256.5224,272.5743" id="Fill-24" fill="#FFFFFF" mask="url(#mask-2)"></path>
            </g>
        </g>
    </g>
</svg>