<?xml version="1.0" encoding="UTF-8" standalone="no"?>
<!-- Created with Inkscape (http://www.inkscape.org/) -->

<svg
   width="1000"
   height="2000.0001"
   viewBox="0 0 264.58334 529.16669"
   version="1.1"
   id="svg12442"
   xmlns="http://www.w3.org/2000/svg"
   xmlns:svg="http://www.w3.org/2000/svg">
  <defs
     id="defs12439" />
  <g
     id="layer1">
    <path
       style="fill:#ff7a1a;stroke:#808080;stroke-width:0.521376;stroke-linecap:round;stroke-linejoin:round;stroke-dasharray:none;stroke-opacity:0.15"
       d="M -36.444007,48.639943 36.444011,121.73689"
       id="path12619" />
    <path
       style="fill:#4d4d4d;stroke:#808080;stroke-width:0.521376;stroke-linecap:round;stroke-linejoin:round;stroke-dasharray:none;stroke-opacity:0.15"
       d="m -2e-7,32.976261 c 0,104.319829 0,104.319829 0,104.319829"
       id="path14612" />
    <path
       style="fill:#4d4d4d;stroke:#808080;stroke-width:0.521376;stroke-linecap:round;stroke-linejoin:round;stroke-dasharray:none;stroke-opacity:0.15"
       d="m 52.010857,84.927354 c -34.938076,0 -70.078333,4e-6 -104.021714,0 v 0"
       id="path14614" />
    <path
       style="fill:#4d4d4d;stroke:#808080;stroke-width:0.521376;stroke-linecap:round;stroke-linejoin:round;stroke-dasharray:none;stroke-opacity:0.15"
       d="M -36.444007,121.73689 36.444011,48.639943"
       id="path14616" />
    <path
       style="fill:none;stroke:#808080;stroke-width:0.521376;stroke-linecap:round;stroke-linejoin:round;stroke-dasharray:none;stroke-opacity:0.15"
       d="M -46.856582,85.188412 C -30.939757,81.724355 -26.198,70.979275 -31.23772,53.861153 -19.466224,58.357359 -6.8188801,52.409726 -1.9999999e-7,38.197523 6.9305233,51.296834 20.692283,52.297788 31.237715,53.861153 25.57361,73.758413 38.734861,76.356615 46.856586,85.188413 31.849588,88.723348 25.706676,98.505643 31.237715,116.51567 20.615229,111.0522 10.216268,116.96647 -1.9999999e-7,132.17929 -10.077563,117.29541 -20.448938,110.8859 -31.23772,116.51567 -26.013778,106.059 -31.26957,95.61665 -46.856582,85.188412 Z"
       id="path14778" />
    <path
       style="fill:none;stroke:#808080;stroke-width:0.521376;stroke-linecap:round;stroke-linejoin:round;stroke-dasharray:none;stroke-opacity:0.15"
       d="M -31.23772,85.188412 C -20.124969,77.881116 -17.751888,70.96916 -20.825146,64.303574 -14.892689,65.945624 -8.9082481,67.323816 -2e-7,53.861153 0.1874378,58.025883 8.2791075,67.919557 20.825147,64.303574 16.32784,75.434412 25.388038,79.471486 31.237715,85.188412 18.417247,93.624984 18.794934,99.979463 20.825147,106.07325 13.789936,102.48163 6.8523812,106.27723 -2e-7,116.51567 -5.9922361,108.68812 -12.14294,101.58604 -20.825146,106.07325 c 3.25585,-13.459004 0.38241,-20.997671 -10.412574,-20.884838"
       id="path14780" />
    <path
       style="fill:none;stroke:#808080;stroke-width:0.521376;stroke-linecap:round;stroke-linejoin:round;stroke-dasharray:none;stroke-opacity:0.15"
       d="m -15.618859,85.188412 c 5.332331,-3.539153 6.8711349,-7.016772 5.206286,-10.442418 3.8352719,2.054803 7.2120739,-0.665137 10.4125728,-5.22121 3.2577354,4.708272 6.673629,7.214114 10.4125772,5.22121 -1.1625235,3.113414 -0.9709975,6.398492 5.206283,10.442418 -4.767857,3.295747 -7.1616015,6.736381 -5.206283,10.442424 C 7.3508655,94.557565 4.1399981,94.510041 -2e-7,100.85204 -3.2843121,96.07562 -6.7141491,93.667639 -10.412573,95.630836 c 1.1132789,-3.089991 1.0494809,-6.341459 -5.206286,-10.442424 z"
       id="path14782" />
    <path
       style="fill:#ff7a1a;stroke:#808080;stroke-width:0.331056;stroke-linecap:round;stroke-linejoin:round;stroke-dasharray:none;stroke-opacity:0.15"
       d="m 241.35959,-23.256721 46.11642,46.580017"
       id="path12619-4" />
    <path
       style="fill:#4d4d4d;stroke:#808080;stroke-width:0.331056;stroke-linecap:round;stroke-linejoin:round;stroke-dasharray:none;stroke-opacity:0.15"
       d="m 264.4178,-33.238185 c 0,66.47637 0,66.47637 0,66.47637"
       id="path14612-3" />
    <path
       style="fill:#4d4d4d;stroke:#808080;stroke-width:0.331056;stroke-linecap:round;stroke-linejoin:round;stroke-dasharray:none;stroke-opacity:0.15"
       d="m 297.29225,0.03328517 c -22.1054,0 -44.33872,3e-6 -65.81478,0 v 0"
       id="path14614-85" />
    <path
       style="fill:#4d4d4d;stroke:#808080;stroke-width:0.331056;stroke-linecap:round;stroke-linejoin:round;stroke-dasharray:none;stroke-opacity:0.15"
       d="M 241.35959,23.323296 287.47601,-23.25672"
       id="path14616-78" />
    <path
       style="fill:none;stroke:#808080;stroke-width:0.331056;stroke-linecap:round;stroke-linejoin:round;stroke-dasharray:none;stroke-opacity:0.15"
       d="m 234.77153,0.03328517 c 10.07061,-2.20742297 13.07073,-9.05457697 9.88209,-19.96286117 7.44786,2.865145 15.44986,-0.924902 19.76418,-9.981432 4.38496,8.347355 13.09205,8.985199 19.76418,9.981431 -3.5837,12.6792532 4.74346,14.3349212 9.88209,19.96286217 -9.49496,2.25258803 -13.3816,8.48622113 -9.88209,19.96286383 -6.72088,-3.481523 -13.30032,0.287268 -19.76418,9.981428 -6.3761,-9.484545 -12.93809,-13.568918 -19.76418,-9.981428 3.3052,-6.663367 -0.0202,-13.3176108 -9.88209,-19.96286383 z"
       id="path14778-2" />
    <path
       style="fill:none;stroke:#808080;stroke-width:0.331056;stroke-linecap:round;stroke-linejoin:round;stroke-dasharray:none;stroke-opacity:0.15"
       d="m 244.65362,0.03328517 c 7.03107,-4.65647297 8.53252,-9.06102197 6.58806,-13.30857417 3.75348,1.046373 7.53985,1.924607 13.17612,-6.654288 0.11859,2.653916 5.23821,8.958522 13.17612,6.654288 -2.84546,7.0929722 2.88695,9.6655422 6.58806,13.30857417 -8.11155,5.37608803 -7.87258,9.42539413 -6.58806,13.30857483 -4.4512,-2.28871 -8.8406,0.129985 -13.17612,6.654289 -3.7913,-4.987998 -7.68287,-9.513701 -13.17612,-6.654289 2.05999,-8.5765648 0.24195,-13.38047683 -6.58806,-13.30857483"
       id="path14780-6" />
    <path
       style="fill:none;stroke:#808080;stroke-width:0.331056;stroke-linecap:round;stroke-linejoin:round;stroke-dasharray:none;stroke-opacity:0.15"
       d="m 254.53571,0.03328517 c 3.37378,-2.25527697 4.34739,-4.47134097 3.29403,-6.65428697 2.42659,1.309395 4.5631,-0.423849 6.58806,-3.3271427 2.06118,3.0002807 4.22242,4.5970927 6.58806,3.3271427 -0.73553,1.983981 -0.61435,4.077351 3.29403,6.65428697 -3.01664,2.10016903 -4.53117,4.29266303 -3.29403,6.65429003 -1.93715,-0.683924 -3.96867,-0.714212 -6.58806,3.3271418 -2.07799,-3.0437108 -4.24806,-4.5781618 -6.58806,-3.3271418 0.70438,-1.969052 0.66401,-4.041007 -3.29403,-6.65429003 z"
       id="path14782-5" />
    <path
       style="fill:#ff7a1a;stroke:#808080;stroke-width:0.331056;stroke-linecap:round;stroke-linejoin:round;stroke-dasharray:none;stroke-opacity:0.15"
       d="m 241.35959,505.90993 46.11642,46.58002"
       id="path12619-4-9" />
    <path
       style="fill:#4d4d4d;stroke:#808080;stroke-width:0.331056;stroke-linecap:round;stroke-linejoin:round;stroke-dasharray:none;stroke-opacity:0.15"
       d="m 264.4178,495.92847 c 0,66.47638 0,66.47638 0,66.47638"
       id="path14612-3-0" />
    <path
       style="fill:#4d4d4d;stroke:#808080;stroke-width:0.331056;stroke-linecap:round;stroke-linejoin:round;stroke-dasharray:none;stroke-opacity:0.15"
       d="m 297.29225,529.19995 c -22.1054,0 -44.33872,0 -65.81478,0 v 0"
       id="path14614-85-3" />
    <path
       style="fill:#4d4d4d;stroke:#808080;stroke-width:0.331056;stroke-linecap:round;stroke-linejoin:round;stroke-dasharray:none;stroke-opacity:0.15"
       d="m 241.35959,552.48995 46.11642,-46.58002"
       id="path14616-78-0" />
    <path
       style="fill:none;stroke:#808080;stroke-width:0.331056;stroke-linecap:round;stroke-linejoin:round;stroke-dasharray:none;stroke-opacity:0.15"
       d="m 234.77153,529.19995 c 10.07061,-2.20742 13.07073,-9.05458 9.88209,-19.96286 7.44786,2.86514 15.44986,-0.92491 19.76418,-9.98144 4.38496,8.34735 13.09205,8.98519 19.76418,9.98144 -3.5837,12.67925 4.74346,14.33492 9.88209,19.96286 -9.49496,2.25259 -13.3816,8.48622 -9.88209,19.96286 -6.72088,-3.48153 -13.30032,0.28727 -19.76418,9.98143 -6.3761,-9.48454 -12.93809,-13.56892 -19.76418,-9.98143 3.3052,-6.66337 -0.0202,-13.31761 -9.88209,-19.96286 z"
       id="path14778-2-1" />
    <path
       style="fill:none;stroke:#808080;stroke-width:0.331056;stroke-linecap:round;stroke-linejoin:round;stroke-dasharray:none;stroke-opacity:0.15"
       d="m 244.65362,529.19995 c 7.03107,-4.65647 8.53252,-9.06102 6.58806,-13.30858 3.75348,1.04638 7.53985,1.92461 13.17612,-6.65428 0.11859,2.65391 5.23821,8.95852 13.17612,6.65428 -2.84546,7.09298 2.88695,9.66555 6.58806,13.30858 -8.11155,5.37609 -7.87258,9.42539 -6.58806,13.30857 -4.4512,-2.28871 -8.8406,0.12999 -13.17612,6.65429 -3.7913,-4.98801 -7.68287,-9.5137 -13.17612,-6.65429 2.05999,-8.57656 0.24195,-13.38047 -6.58806,-13.30857"
       id="path14780-6-0" />
    <path
       style="fill:none;stroke:#808080;stroke-width:0.331056;stroke-linecap:round;stroke-linejoin:round;stroke-dasharray:none;stroke-opacity:0.15"
       d="m 254.53571,529.19995 c 3.37378,-2.25528 4.34739,-4.47134 3.29403,-6.65429 2.42659,1.3094 4.5631,-0.42385 6.58806,-3.32714 2.06118,3.00028 4.22242,4.59709 6.58806,3.32714 -0.73553,1.98398 -0.61435,4.07735 3.29403,6.65429 -3.01664,2.10017 -4.53117,4.29266 -3.29403,6.65429 -1.93715,-0.68394 -3.96867,-0.71421 -6.58806,3.32713 -2.07799,-3.04371 -4.24806,-4.57816 -6.58806,-3.32713 0.70438,-1.96906 0.66401,-4.04102 -3.29403,-6.65429 z"
       id="path14782-5-7" />
    <path
       style="fill:#ff7a1a;stroke:#808080;stroke-width:0.523696;stroke-linecap:round;stroke-linejoin:round;stroke-dasharray:none;stroke-opacity:0.15"
       d="m 229.38928,172.96983 70.35815,76.40057"
       id="path12619-9" />
    <path
       style="fill:#4d4d4d;stroke:#808080;stroke-width:0.523696;stroke-linecap:round;stroke-linejoin:round;stroke-dasharray:none;stroke-opacity:0.15"
       d="m 264.56835,156.59823 c 0,109.03457 0,109.03457 0,109.03457"
       id="path14612-6" />
    <path
       style="fill:#4d4d4d;stroke:#808080;stroke-width:0.523696;stroke-linecap:round;stroke-linejoin:round;stroke-dasharray:none;stroke-opacity:0.15"
       d="m 314.72371,211.17011 c -33.72542,0 -67.64598,0 -100.41121,0 v 0"
       id="path14614-0" />
    <path
       style="fill:#4d4d4d;stroke:#808080;stroke-width:0.523696;stroke-linecap:round;stroke-linejoin:round;stroke-dasharray:none;stroke-opacity:0.15"
       d="m 229.38928,249.3704 70.35815,-76.40057"
       id="path14616-7" />
    <path
       style="fill:none;stroke:#808080;stroke-width:0.523696;stroke-linecap:round;stroke-linejoin:round;stroke-dasharray:none;stroke-opacity:0.15"
       d="m 219.33812,211.17011 c 15.36437,-3.62062 19.94154,-14.85132 15.07675,-32.7431 11.36292,4.69942 23.57128,-1.51702 30.15348,-16.37155 6.68998,13.69134 19.97408,14.73753 30.1535,16.37155 -5.46752,20.79652 7.23691,23.51214 15.07674,32.7431 -14.48612,3.69469 -20.41582,13.91911 -15.07674,32.74309 -10.2538,-5.71039 -20.29182,0.47118 -30.1535,16.37155 -9.72778,-15.55655 -19.73917,-22.25575 -30.15348,-16.37155 5.04262,-10.92925 -0.0308,-21.84355 -15.07675,-32.74309 z"
       id="path14778-7" />
    <path
       style="fill:none;stroke:#808080;stroke-width:0.523696;stroke-linecap:round;stroke-linejoin:round;stroke-dasharray:none;stroke-opacity:0.15"
       d="m 234.41487,211.17011 c 10.72704,-7.63755 13.01775,-14.86189 10.05116,-21.82872 5.72656,1.71625 11.50328,3.15673 20.10232,-10.91438 0.18094,4.35296 7.99175,14.69378 20.10234,10.91438 -4.34122,11.63389 4.40452,15.85342 10.05116,21.82872 -12.37549,8.81786 -12.01092,15.45954 -10.05116,21.82873 -6.79103,-3.75395 -13.48779,0.2132 -20.10234,10.91436 -5.78425,-8.18131 -11.72147,-15.60438 -20.10232,-10.91436 3.14285,-14.06729 0.36914,-21.94666 -10.05116,-21.82873"
       id="path14780-0" />
    <path
       style="fill:none;stroke:#808080;stroke-width:0.523696;stroke-linecap:round;stroke-linejoin:round;stroke-dasharray:none;stroke-opacity:0.15"
       d="m 249.49161,211.17011 c 5.14726,-3.69911 6.63264,-7.33389 5.02559,-10.91436 3.70215,2.14767 6.96174,-0.6952 10.05115,-5.45719 3.14467,4.92106 6.442,7.54015 10.05118,5.45719 -1.12218,3.25412 -0.9373,6.68767 5.02557,10.91436 -4.60237,3.4447 -6.91304,7.04082 -5.02557,10.91437 -2.95545,-1.12177 -6.05487,-1.17145 -10.05118,5.45718 -3.17031,-4.9923 -6.4811,-7.50911 -10.05115,-5.45718 1.07464,-3.22965 1.01304,-6.62807 -5.02559,-10.91437 z"
       id="path14782-3" />
    <path
       style="fill:#ff7a1a;stroke:#808080;stroke-width:0.944316;stroke-linecap:round;stroke-linejoin:round;stroke-dasharray:none;stroke-opacity:0.15"
       d="M -65.494617,316.49993 64.468364,450.98391"
       id="path12619-7" />
    <path
       style="fill:#4d4d4d;stroke:#808080;stroke-width:0.944316;stroke-linecap:round;stroke-linejoin:round;stroke-dasharray:none;stroke-opacity:0.15"
       d="m 92.132007,383.74191 c -62.296352,0 -124.953181,2e-5 -185.475924,0 v 0"
       id="path14614-8" />
    <path
       style="fill:#4d4d4d;stroke:#808080;stroke-width:0.944316;stroke-linecap:round;stroke-linejoin:round;stroke-dasharray:none;stroke-opacity:0.15"
       d="M -65.494617,450.98391 64.468364,316.49993"
       id="path14616-3" />
    <path
       style="fill:none;stroke:#808080;stroke-width:0.944316;stroke-linecap:round;stroke-linejoin:round;stroke-dasharray:none;stroke-opacity:0.15"
       d="m -84.060755,383.74191 c 28.380491,-6.37316 36.835282,-26.14201 27.849209,-57.63598 20.989165,8.27214 43.540014,-2.67033 55.69841812,-28.81799 C 11.844343,321.38808 36.382245,323.22965 55.185279,326.10593 45.085896,362.71297 68.553055,367.49316 83.03452,383.74191 56.276279,390.24549 45.323157,408.243 55.185279,441.3779 36.244851,431.32618 17.702989,442.20729 -0.51312788,470.19589 -18.481927,442.81249 -36.974609,431.02025 -56.211546,441.3779 c 9.314548,-19.2382 -0.0568,-38.45007 -27.849209,-57.63599 z"
       id="path14778-72" />
    <path
       style="fill:none;stroke:#808080;stroke-width:0.944316;stroke-linecap:round;stroke-linejoin:round;stroke-dasharray:none;stroke-opacity:0.15"
       d="m -56.211546,383.74191 c 19.81459,-13.44398 24.045912,-26.16062 18.566139,-38.42399 10.577869,3.02105 21.248428,5.55666 37.13227912,-19.21199 0.33421041,7.6623 14.76206288,25.86469 37.13228088,19.21199 -8.018933,20.47856 8.135861,27.90599 18.566126,38.42399 -22.859539,15.52163 -22.186096,27.21263 -18.566126,38.424 C 24.075013,415.55804 11.70501,422.54118 -0.51312788,441.3779 -11.197585,426.97675 -22.164598,413.91033 -37.645407,422.16591 c 5.805343,-24.76193 0.681855,-38.6316 -18.566139,-38.424"
       id="path14780-08" />
    <path
       style="fill:none;stroke:#808080;stroke-width:0.944316;stroke-linecap:round;stroke-linejoin:round;stroke-dasharray:none;stroke-opacity:0.15"
       d="m -28.362335,383.74191 c 9.507812,-6.51134 12.251578,-12.90947 9.283067,-19.21199 6.838484,3.78044 12.8594911,-1.22371 18.56614012,-9.60599 5.80870068,8.6623 11.89941388,13.27254 18.56613988,9.60599 -2.072833,5.72808 -1.731329,11.77197 9.283063,19.21199 -8.501326,6.06354 -12.769485,12.39363 -9.283063,19.212 -5.459185,-1.97459 -11.1843184,-2.06202 -18.56613988,9.606 -5.85609322,-8.78768 -11.97166412,-13.21788 -18.56614012,-9.606 1.985033,-5.68497 1.871277,-11.66701 -9.283067,-19.212 z"
       id="path14782-32" />
  </g>
</svg>
