<?xml version="1.0" encoding="UTF-8" standalone="no"?>
<!-- Created with Inkscape (http://www.inkscape.org/) -->

<svg
   width="1000"
   height="2000"
   viewBox="0 0 264.58334 529.16666"
   version="1.1"
   id="svg12442"
   inkscape:export-filename="silk-bg.svg"
   inkscape:export-xdpi="96"
   inkscape:export-ydpi="96"
   inkscape:version="1.2.1 (9c6d41e410, 2022-07-14)"
   sodipodi:docname="event-bg.svg"
   xmlns:inkscape="http://www.inkscape.org/namespaces/inkscape"
   xmlns:sodipodi="http://sodipodi.sourceforge.net/DTD/sodipodi-0.dtd"
   xmlns="http://www.w3.org/2000/svg"
   xmlns:svg="http://www.w3.org/2000/svg">
  <sodipodi:namedview
     id="namedview12444"
     pagecolor="#ffffff"
     bordercolor="#000000"
     borderopacity="0.25"
     inkscape:showpageshadow="2"
     inkscape:pageopacity="0.0"
     inkscape:pagecheckerboard="0"
     inkscape:deskcolor="#d1d1d1"
     inkscape:document-units="mm"
     showgrid="true"
     inkscape:zoom="0.53241365"
     inkscape:cx="339.02211"
     inkscape:cy="221.63218"
     inkscape:window-width="1920"
     inkscape:window-height="1017"
     inkscape:window-x="-8"
     inkscape:window-y="32"
     inkscape:window-maximized="1"
     inkscape:current-layer="layer1">
    <inkscape:grid
       type="xygrid"
       id="grid12563"
       spacingx="2.6458333"
       spacingy="2.6458333"
       originx="0"
       originy="0" />
  </sodipodi:namedview>
  <defs
     id="defs12439" />
  <g
     inkscape:label="Réteg 1"
     inkscape:groupmode="layer"
     id="layer1">
    <path
       style="fill:#e50000;stroke:#7ad7f2;stroke-width:0.52916667;stroke-linecap:square;stroke-linejoin:round;stroke-opacity:0.39999965;stroke-dasharray:none"
       d="m -1e-6,59.531248 c 0,66.145832 0,66.145832 0,66.145832"
       id="path549" />
    <path
       style="fill:#e50000;stroke:#7ad7f2;stroke-width:0.52916667;stroke-linecap:square;stroke-linejoin:round;stroke-opacity:0.39999965;stroke-dasharray:none"
       d="m -33.072917,92.604164 c 66.145835,0 66.145835,0 66.145835,0"
       id="path4183" />
    <path
       style="fill:#e50000;stroke:#7ad7f2;stroke-width:0.52916667;stroke-linecap:square;stroke-linejoin:round;stroke-opacity:0.39999965;stroke-dasharray:none"
       d="M 23.812501,68.791665 -23.8125,116.41667"
       id="path4185"
       sodipodi:nodetypes="cc" />
    <path
       style="fill:#e50000;stroke:#7ad7f2;stroke-width:0.52916667;stroke-linecap:square;stroke-linejoin:round;stroke-opacity:0.39999965;stroke-dasharray:none"
       d="M -23.8125,68.791665 C 23.812502,116.41667 23.812502,116.41667 23.812502,116.41667"
       id="path5740" />
    <path
       style="fill:none;stroke:#7ad7f2;stroke-width:0.52916667;stroke-linecap:square;stroke-linejoin:round;stroke-opacity:0.39999965;stroke-dasharray:none"
       d="m 6.614585,62.177081 c 0,0 0,0 -6.614586,6.614584 -6.614582,-6.614584 -6.614582,-6.614584 -6.614582,-6.614584"
       id="path6468" />
    <path
       style="fill:none;stroke:#7ad7f2;stroke-width:0.52916667;stroke-linecap:square;stroke-linejoin:round;stroke-opacity:0.39999965;stroke-dasharray:none"
       d="m 15.875001,68.791665 1e-6,7.9375 h 7.937499"
       id="path6524"
       sodipodi:nodetypes="ccc" />
    <path
       style="fill:none;stroke:#7ad7f2;stroke-width:0.52916667;stroke-linecap:square;stroke-linejoin:round;stroke-opacity:0.39999965;stroke-dasharray:none"
       d="m -15.874999,68.791665 -10e-7,7.9375 h -7.937499"
       id="path6580"
       sodipodi:nodetypes="ccc" />
    <path
       style="fill:none;stroke:#7ad7f2;stroke-width:0.52916667;stroke-linecap:square;stroke-linejoin:round;stroke-opacity:0.39999965;stroke-dasharray:none"
       d="m 6.614587,123.03125 c 0,0 0,0 -6.614586,-6.61458 -6.614582,6.61458 -6.614582,6.61458 -6.614582,6.61458"
       id="path6582" />
    <path
       style="fill:none;stroke:#7ad7f2;stroke-width:0.52916667;stroke-linecap:square;stroke-linejoin:round;stroke-opacity:0.39999965;stroke-dasharray:none"
       d="m -15.874999,116.41667 -10e-7,-7.9375 h -7.937499"
       id="path6584"
       sodipodi:nodetypes="ccc" />
    <path
       style="fill:none;stroke:#7ad7f2;stroke-width:0.52916667;stroke-linecap:square;stroke-linejoin:round;stroke-opacity:0.39999965;stroke-dasharray:none"
       d="m 15.875,116.41667 10e-7,-7.9375 H 23.8125"
       id="path6586"
       sodipodi:nodetypes="ccc" />
    <path
       style="fill:none;stroke:#7ad7f2;stroke-width:0.52916667;stroke-linecap:square;stroke-linejoin:round;stroke-opacity:0.39999965;stroke-dasharray:none"
       d="m 30.427084,99.218752 c 0,0 0,0 -6.614583,-6.614586 6.614583,-6.614583 6.614583,-6.614583 6.614583,-6.614583"
       id="path6588" />
    <path
       style="fill:none;stroke:#7ad7f2;stroke-width:0.52916667;stroke-linecap:square;stroke-linejoin:round;stroke-opacity:0.39999965;stroke-dasharray:none"
       d="m -30.427082,99.218752 c 0,0 0,0 6.614582,-6.614586 -6.614582,-6.614583 -6.614582,-6.614583 -6.614582,-6.614583"
       id="path6590" />
    <path
       sodipodi:type="star"
       style="fill:none;stroke:#7ad7f2;stroke-width:0.52916667;stroke-linecap:square;stroke-linejoin:round;stroke-opacity:0.39999965;stroke-dasharray:none"
       id="path8117"
       inkscape:flatsided="false"
       sodipodi:sides="8"
       sodipodi:cx="33.072914"
       sodipodi:cy="33.072914"
       sodipodi:r1="9.3544388"
       sodipodi:r2="17.197922"
       sodipodi:arg1="0.78539816"
       sodipodi:arg2="1.1760051"
       inkscape:rounded="0"
       inkscape:randomized="0"
       d="m 39.687501,39.687501 0,9.260417 -6.614587,-6.520565 -6.548104,6.548103 -0.06648,-9.287955 -9.260417,0 6.520565,-6.614587 -6.548103,-6.548104 9.287955,-0.06648 0,-9.260417 6.614587,6.520565 6.548104,-6.548103 0.06648,9.287955 9.260417,0 -6.520565,6.614587 6.548103,6.548104 z"
       transform="translate(-33.072917,59.531248)" />
    <path
       style="fill:#e50000;stroke:#7ad7f2;stroke-width:0.52916667;stroke-linecap:square;stroke-linejoin:round;stroke-opacity:0.39999965;stroke-dasharray:none"
       d="m 264.58333,-26.35292 c 0,52.705842 0,52.705842 0,52.705842"
       id="path549-5" />
    <path
       style="fill:#e50000;stroke:#7ad7f2;stroke-width:0.52916667;stroke-linecap:square;stroke-linejoin:round;stroke-opacity:0.39999965;stroke-dasharray:none"
       d="m 238.23041,-1.7443764e-7 c 52.70584,0 52.70584,0 52.70584,0"
       id="path4183-3" />
    <path
       style="fill:#e50000;stroke:#7ad7f2;stroke-width:0.52916667;stroke-linecap:square;stroke-linejoin:round;stroke-opacity:0.39999965;stroke-dasharray:none"
       d="m 283.55743,-18.974102 -37.9482,37.948206"
       id="path4185-1"
       sodipodi:nodetypes="cc" />
    <path
       style="fill:#e50000;stroke:#7ad7f2;stroke-width:0.52916667;stroke-linecap:square;stroke-linejoin:round;stroke-opacity:0.39999965;stroke-dasharray:none"
       d="m 245.60923,-18.974102 c 37.9482,37.948207 37.9482,37.948207 37.9482,37.948207"
       id="path5740-8" />
    <path
       style="fill:none;stroke:#7ad7f2;stroke-width:0.52916667;stroke-linecap:square;stroke-linejoin:round;stroke-opacity:0.39999965;stroke-dasharray:none"
       d="m 269.85391,-24.244686 c 0,0 0,0 -5.27058,5.270584 -5.27058,-5.270584 -5.27058,-5.270584 -5.27058,-5.270584"
       id="path6468-8" />
    <path
       style="fill:none;stroke:#7ad7f2;stroke-width:0.52916667;stroke-linecap:square;stroke-linejoin:round;stroke-opacity:0.39999965;stroke-dasharray:none"
       d="m 277.23273,-18.974102 v 6.324701 h 6.3247"
       id="path6524-5"
       sodipodi:nodetypes="ccc" />
    <path
       style="fill:none;stroke:#7ad7f2;stroke-width:0.52916667;stroke-linecap:square;stroke-linejoin:round;stroke-opacity:0.39999965;stroke-dasharray:none"
       d="m 251.93393,-18.974102 v 6.324701 h -6.3247"
       id="path6580-3"
       sodipodi:nodetypes="ccc" />
    <path
       style="fill:none;stroke:#7ad7f2;stroke-width:0.52916667;stroke-linecap:square;stroke-linejoin:round;stroke-opacity:0.39999965;stroke-dasharray:none"
       d="m 269.85392,24.244688 c 0,0 0,0 -5.27059,-5.270584 -5.27058,5.270584 -5.27058,5.270584 -5.27058,5.270584"
       id="path6582-1" />
    <path
       style="fill:none;stroke:#7ad7f2;stroke-width:0.52916667;stroke-linecap:square;stroke-linejoin:round;stroke-opacity:0.39999965;stroke-dasharray:none"
       d="m 251.93393,18.974104 v -6.324701 h -6.3247"
       id="path6584-1"
       sodipodi:nodetypes="ccc" />
    <path
       style="fill:none;stroke:#7ad7f2;stroke-width:0.52916667;stroke-linecap:square;stroke-linejoin:round;stroke-opacity:0.39999965;stroke-dasharray:none"
       d="m 277.23273,18.974104 v -6.324701 h 6.3247"
       id="path6586-3"
       sodipodi:nodetypes="ccc" />
    <path
       style="fill:none;stroke:#7ad7f2;stroke-width:0.52916667;stroke-linecap:square;stroke-linejoin:round;stroke-opacity:0.39999965;stroke-dasharray:none"
       d="m 288.82801,5.2705876 c 0,0 0,0 -5.27058,-5.2705861808122 C 288.82801,-5.2705824 288.82801,-5.2705824 288.82801,-5.2705824"
       id="path6588-2" />
    <path
       style="fill:none;stroke:#7ad7f2;stroke-width:0.52916667;stroke-linecap:square;stroke-linejoin:round;stroke-opacity:0.39999965;stroke-dasharray:none"
       d="m 240.33864,5.2705876 c 0,0 0,0 5.27059,-5.2705861808122 C 240.33864,-5.2705824 240.33864,-5.2705824 240.33864,-5.2705824"
       id="path6590-2" />
    <path
       sodipodi:type="star"
       style="fill:none;stroke:#7ad7f2;stroke-width:0.66410422;stroke-linecap:square;stroke-linejoin:round;stroke-opacity:0.39999965;stroke-dasharray:none"
       id="path8117-5"
       inkscape:flatsided="false"
       sodipodi:sides="8"
       sodipodi:cx="33.072914"
       sodipodi:cy="33.072914"
       sodipodi:r1="9.3544388"
       sodipodi:r2="17.197922"
       sodipodi:arg1="0.78539816"
       sodipodi:arg2="1.1760051"
       inkscape:rounded="0"
       inkscape:randomized="0"
       d="m 39.687501,39.687501 0,9.260417 -6.614587,-6.520565 -6.548104,6.548103 -0.06648,-9.287955 -9.260417,0 6.520565,-6.614587 -6.548103,-6.548104 9.287955,-0.06648 0,-9.260417 6.614587,6.520565 6.548104,-6.548103 0.06648,9.287955 9.260417,0 -6.520565,6.614587 6.548103,6.548104 z"
       transform="matrix(0.79681265,0,0,0.79681271,238.23041,-26.35292)" />
    <path
       style="fill:#e50000;stroke:#7ad7f2;stroke-width:0.52916667;stroke-linecap:square;stroke-linejoin:round;stroke-opacity:0.39999965;stroke-dasharray:none"
       d="m 264.58333,162.98294 c 0,97.36746 0,97.36746 0,97.36746"
       id="path549-2" />
    <path
       style="fill:#e50000;stroke:#7ad7f2;stroke-width:0.52916667;stroke-linecap:square;stroke-linejoin:round;stroke-opacity:0.39999965;stroke-dasharray:none"
       d="m 215.8996,211.66667 c 97.36746,0 97.36746,0 97.36746,0"
       id="path4183-5" />
    <path
       style="fill:#e50000;stroke:#7ad7f2;stroke-width:0.52916667;stroke-linecap:square;stroke-linejoin:round;stroke-opacity:0.39999965;stroke-dasharray:none"
       d="m 299.63561,176.61438 -70.10457,70.10457"
       id="path4185-0"
       sodipodi:nodetypes="cc" />
    <path
       style="fill:#e50000;stroke:#7ad7f2;stroke-width:0.52916667;stroke-linecap:square;stroke-linejoin:round;stroke-opacity:0.39999965;stroke-dasharray:none"
       d="m 229.53104,176.61438 c 70.10457,70.10457 70.10457,70.10457 70.10457,70.10457"
       id="path5740-1" />
    <path
       style="fill:none;stroke:#7ad7f2;stroke-width:0.52916667;stroke-linecap:square;stroke-linejoin:round;stroke-opacity:0.39999965;stroke-dasharray:none"
       d="m 274.32008,166.87764 c 0,0 0,0 -9.73675,9.73674 -9.73675,-9.73674 -9.73675,-9.73674 -9.73675,-9.73674"
       id="path6468-3" />
    <path
       style="fill:none;stroke:#7ad7f2;stroke-width:0.52916667;stroke-linecap:square;stroke-linejoin:round;stroke-opacity:0.39999965;stroke-dasharray:none"
       d="m 287.95152,176.61438 v 11.6841 h 11.68409"
       id="path6524-0"
       sodipodi:nodetypes="ccc" />
    <path
       style="fill:none;stroke:#7ad7f2;stroke-width:0.52916667;stroke-linecap:square;stroke-linejoin:round;stroke-opacity:0.39999965;stroke-dasharray:none"
       d="m 241.21514,176.61438 v 11.6841 h -11.68409"
       id="path6580-37"
       sodipodi:nodetypes="ccc" />
    <path
       style="fill:none;stroke:#7ad7f2;stroke-width:0.52916667;stroke-linecap:square;stroke-linejoin:round;stroke-opacity:0.39999965;stroke-dasharray:none"
       d="m 274.32008,256.4557 c 0,0 0,0 -9.73675,-9.73675 -9.73674,9.73675 -9.73674,9.73675 -9.73674,9.73675"
       id="path6582-8" />
    <path
       style="fill:none;stroke:#7ad7f2;stroke-width:0.52916667;stroke-linecap:square;stroke-linejoin:round;stroke-opacity:0.39999965;stroke-dasharray:none"
       d="M 241.21514,246.71895 V 235.03486 H 229.53105"
       id="path6584-6"
       sodipodi:nodetypes="ccc" />
    <path
       style="fill:none;stroke:#7ad7f2;stroke-width:0.52916667;stroke-linecap:square;stroke-linejoin:round;stroke-opacity:0.39999965;stroke-dasharray:none"
       d="m 287.95152,246.71895 v -11.68409 h 11.68409"
       id="path6586-38"
       sodipodi:nodetypes="ccc" />
    <path
       style="fill:none;stroke:#7ad7f2;stroke-width:0.52916667;stroke-linecap:square;stroke-linejoin:round;stroke-opacity:0.39999965;stroke-dasharray:none"
       d="m 309.37236,221.40342 c 0,0 0,0 -9.73675,-9.73675 9.73675,-9.73675 9.73675,-9.73675 9.73675,-9.73675"
       id="path6588-3" />
    <path
       style="fill:none;stroke:#7ad7f2;stroke-width:0.52916667;stroke-linecap:square;stroke-linejoin:round;stroke-opacity:0.39999965;stroke-dasharray:none"
       d="m 219.7943,221.40342 c 0,0 0,0 9.73674,-9.73675 -9.73674,-9.73675 -9.73674,-9.73675 -9.73674,-9.73675"
       id="path6590-3" />
    <path
       sodipodi:type="star"
       style="fill:none;stroke:#7ad7f2;stroke-width:0.35948532;stroke-linecap:square;stroke-linejoin:round;stroke-opacity:0.39999965;stroke-dasharray:none"
       id="path8117-0"
       inkscape:flatsided="false"
       sodipodi:sides="8"
       sodipodi:cx="33.072914"
       sodipodi:cy="33.072914"
       sodipodi:r1="9.3544388"
       sodipodi:r2="17.197922"
       sodipodi:arg1="0.78539816"
       sodipodi:arg2="1.1760051"
       inkscape:rounded="0"
       inkscape:randomized="0"
       d="m 39.687501,39.687501 0,9.260417 -6.614587,-6.520565 -6.548104,6.548103 -0.06648,-9.287955 -9.260417,0 6.520565,-6.614587 -6.548103,-6.548104 9.287955,-0.06648 0,-9.260417 6.614587,6.520565 6.548104,-6.548103 0.06648,9.287955 9.260417,0 -6.520565,6.614587 6.548103,6.548104 z"
       transform="matrix(1.4720119,0,0,1.4720119,215.8996,162.98294)" />
    <path
       style="fill:#e50000;stroke:#7ad7f2;stroke-width:0.52916667;stroke-linecap:square;stroke-linejoin:round;stroke-opacity:0.39999965;stroke-dasharray:none"
       d="m -3.0103336e-6,278.02333 c 0,105.41168 0,105.41168 0,105.41168"
       id="path549-1" />
    <path
       style="fill:#e50000;stroke:#7ad7f2;stroke-width:0.52916667;stroke-linecap:square;stroke-linejoin:round;stroke-opacity:0.39999965;stroke-dasharray:none"
       d="m -52.705842,330.72917 c 105.411683,0 105.411683,0 105.411683,0"
       id="path4183-4" />
    <path
       style="fill:#e50000;stroke:#7ad7f2;stroke-width:0.52916667;stroke-linecap:square;stroke-linejoin:round;stroke-opacity:0.39999965;stroke-dasharray:none"
       d="m 37.948205,292.78096 -75.896411,75.89641"
       id="path4185-02"
       sodipodi:nodetypes="cc" />
    <path
       style="fill:#e50000;stroke:#7ad7f2;stroke-width:0.52916667;stroke-linecap:square;stroke-linejoin:round;stroke-opacity:0.39999965;stroke-dasharray:none"
       d="m -37.948207,292.78096 c 75.896414,75.89641 75.896414,75.89641 75.896414,75.89641"
       id="path5740-2" />
    <path
       style="fill:none;stroke:#7ad7f2;stroke-width:0.52916667;stroke-linecap:square;stroke-linejoin:round;stroke-opacity:0.39999965;stroke-dasharray:none"
       d="m 10.541169,282.2398 c 0,0 0,0 -10.5411720103336,10.54116 C -10.541169,282.2398 -10.541169,282.2398 -10.541169,282.2398"
       id="path6468-35" />
    <path
       style="fill:none;stroke:#7ad7f2;stroke-width:0.52916667;stroke-linecap:square;stroke-linejoin:round;stroke-opacity:0.39999965;stroke-dasharray:none"
       d="m 25.298803,292.78096 2e-6,12.64941 h 12.6494"
       id="path6524-9"
       sodipodi:nodetypes="ccc" />
    <path
       style="fill:none;stroke:#7ad7f2;stroke-width:0.52916667;stroke-linecap:square;stroke-linejoin:round;stroke-opacity:0.39999965;stroke-dasharray:none"
       d="m -25.298803,292.78097 -2e-6,12.6494 h -12.6494"
       id="path6580-7"
       sodipodi:nodetypes="ccc" />
    <path
       style="fill:none;stroke:#7ad7f2;stroke-width:0.52916667;stroke-linecap:square;stroke-linejoin:round;stroke-opacity:0.39999965;stroke-dasharray:none"
       d="m 10.541172,379.21854 c 0,0 0,0 -10.5411718230828,-10.54117 C -10.541166,379.21854 -10.541166,379.21854 -10.541166,379.21854"
       id="path6582-5" />
    <path
       style="fill:none;stroke:#7ad7f2;stroke-width:0.52916667;stroke-linecap:square;stroke-linejoin:round;stroke-opacity:0.39999965;stroke-dasharray:none"
       d="m -25.298803,368.67737 -2e-6,-12.6494 h -12.649399"
       id="path6584-4"
       sodipodi:nodetypes="ccc" />
    <path
       style="fill:none;stroke:#7ad7f2;stroke-width:0.52916667;stroke-linecap:square;stroke-linejoin:round;stroke-opacity:0.39999965;stroke-dasharray:none"
       d="m 25.298802,368.67737 1e-6,-12.6494 h 12.6494"
       id="path6586-36"
       sodipodi:nodetypes="ccc" />
    <path
       style="fill:none;stroke:#7ad7f2;stroke-width:0.52916667;stroke-linecap:square;stroke-linejoin:round;stroke-opacity:0.39999965;stroke-dasharray:none"
       d="m 48.489372,341.27034 c 0,0 0,0 -10.541167,-10.54117 C 48.489372,320.188 48.489372,320.188 48.489372,320.188"
       id="path6588-7" />
    <path
       style="fill:none;stroke:#7ad7f2;stroke-width:0.52916667;stroke-linecap:square;stroke-linejoin:round;stroke-opacity:0.39999965;stroke-dasharray:none"
       d="m -48.489372,341.27034 c 0,0 0,0 10.541166,-10.54117 C -48.489372,320.188 -48.489372,320.188 -48.489372,320.188"
       id="path6590-5" />
    <path
       sodipodi:type="star"
       style="fill:none;stroke:#7ad7f2;stroke-width:0.33205211;stroke-linecap:square;stroke-linejoin:round;stroke-opacity:0.39999965;stroke-dasharray:none"
       id="path8117-8"
       inkscape:flatsided="false"
       sodipodi:sides="8"
       sodipodi:cx="33.072914"
       sodipodi:cy="33.072914"
       sodipodi:r1="9.3544388"
       sodipodi:r2="17.197922"
       sodipodi:arg1="0.78539816"
       sodipodi:arg2="1.1760051"
       inkscape:rounded="0"
       inkscape:randomized="0"
       d="m 39.687501,39.687501 0,9.260417 -6.614587,-6.520565 -6.548104,6.548103 -0.06648,-9.287955 -9.260417,0 6.520565,-6.614587 -6.548103,-6.548104 9.287955,-0.06648 0,-9.260417 6.614587,6.520565 6.548104,-6.548103 0.06648,9.287955 9.260417,0 -6.520565,6.614587 6.548103,6.548104 z"
       transform="matrix(1.5936254,0,0,1.5936253,-52.705842,278.02333)" />
    <path
       style="fill:#e50000;stroke:#7ad7f2;stroke-width:0.52916667;stroke-linecap:square;stroke-linejoin:round;stroke-opacity:0.39999965;stroke-dasharray:none"
       d="m 264.58333,502.81374 c 0,52.70584 0,52.70584 0,52.70584"
       id="path549-18" />
    <path
       style="fill:#e50000;stroke:#7ad7f2;stroke-width:0.52916667;stroke-linecap:square;stroke-linejoin:round;stroke-opacity:0.39999965;stroke-dasharray:none"
       d="m 238.23041,529.16666 c 52.70584,0 52.70584,0 52.70584,0"
       id="path4183-2" />
    <path
       style="fill:#e50000;stroke:#7ad7f2;stroke-width:0.52916667;stroke-linecap:square;stroke-linejoin:round;stroke-opacity:0.39999965;stroke-dasharray:none"
       d="m 283.55743,510.19256 -37.9482,37.9482"
       id="path4185-2"
       sodipodi:nodetypes="cc" />
    <path
       style="fill:#e50000;stroke:#7ad7f2;stroke-width:0.52916667;stroke-linecap:square;stroke-linejoin:round;stroke-opacity:0.39999965;stroke-dasharray:none"
       d="m 245.60923,510.19256 c 37.9482,37.9482 37.9482,37.9482 37.9482,37.9482"
       id="path5740-7" />
    <path
       style="fill:none;stroke:#7ad7f2;stroke-width:0.52916667;stroke-linecap:square;stroke-linejoin:round;stroke-opacity:0.39999965;stroke-dasharray:none"
       d="m 269.85391,504.92197 c 0,0 0,0 -5.27058,5.27059 -5.27058,-5.27059 -5.27058,-5.27059 -5.27058,-5.27059"
       id="path6468-1" />
    <path
       style="fill:none;stroke:#7ad7f2;stroke-width:0.52916667;stroke-linecap:square;stroke-linejoin:round;stroke-opacity:0.39999965;stroke-dasharray:none"
       d="m 277.23273,510.19256 v 6.3247 h 6.3247"
       id="path6524-2"
       sodipodi:nodetypes="ccc" />
    <path
       style="fill:none;stroke:#7ad7f2;stroke-width:0.52916667;stroke-linecap:square;stroke-linejoin:round;stroke-opacity:0.39999965;stroke-dasharray:none"
       d="m 251.93393,510.19256 v 6.3247 h -6.3247"
       id="path6580-0"
       sodipodi:nodetypes="ccc" />
    <path
       style="fill:none;stroke:#7ad7f2;stroke-width:0.52916667;stroke-linecap:square;stroke-linejoin:round;stroke-opacity:0.39999965;stroke-dasharray:none"
       d="m 269.85392,553.41134 c 0,0 0,0 -5.27059,-5.27058 -5.27058,5.27058 -5.27058,5.27058 -5.27058,5.27058"
       id="path6582-7" />
    <path
       style="fill:none;stroke:#7ad7f2;stroke-width:0.52916667;stroke-linecap:square;stroke-linejoin:round;stroke-opacity:0.39999965;stroke-dasharray:none"
       d="m 251.93393,548.14076 v -6.3247 h -6.3247"
       id="path6584-0"
       sodipodi:nodetypes="ccc" />
    <path
       style="fill:none;stroke:#7ad7f2;stroke-width:0.52916667;stroke-linecap:square;stroke-linejoin:round;stroke-opacity:0.39999965;stroke-dasharray:none"
       d="m 277.23273,548.14076 v -6.3247 h 6.3247"
       id="path6586-1"
       sodipodi:nodetypes="ccc" />
    <path
       style="fill:none;stroke:#7ad7f2;stroke-width:0.52916667;stroke-linecap:square;stroke-linejoin:round;stroke-opacity:0.39999965;stroke-dasharray:none"
       d="m 288.82801,534.43725 c 0,0 0,0 -5.27058,-5.27059 5.27058,-5.27058 5.27058,-5.27058 5.27058,-5.27058"
       id="path6588-0" />
    <path
       style="fill:none;stroke:#7ad7f2;stroke-width:0.52916667;stroke-linecap:square;stroke-linejoin:round;stroke-opacity:0.39999965;stroke-dasharray:none"
       d="m 240.33864,534.43725 c 0,0 0,0 5.27059,-5.27059 -5.27059,-5.27058 -5.27059,-5.27058 -5.27059,-5.27058"
       id="path6590-0" />
    <path
       sodipodi:type="star"
       style="fill:none;stroke:#7ad7f2;stroke-width:0.66410425;stroke-linecap:square;stroke-linejoin:round;stroke-opacity:0.39999965;stroke-dasharray:none"
       id="path8117-05"
       inkscape:flatsided="false"
       sodipodi:sides="8"
       sodipodi:cx="33.072914"
       sodipodi:cy="33.072914"
       sodipodi:r1="9.3544388"
       sodipodi:r2="17.197922"
       sodipodi:arg1="0.78539816"
       sodipodi:arg2="1.1760051"
       inkscape:rounded="0"
       inkscape:randomized="0"
       d="m 39.687501,39.687501 0,9.260417 -6.614587,-6.520565 -6.548104,6.548103 -0.06648,-9.287955 -9.260417,0 6.520565,-6.614587 -6.548103,-6.548104 9.287955,-0.06648 0,-9.260417 6.614587,6.520565 6.548104,-6.548103 0.06648,9.287955 9.260417,0 -6.520565,6.614587 6.548103,6.548104 z"
       transform="matrix(0.79681265,0,0,0.79681265,238.23041,502.81374)" />
  </g>
</svg>
