<?xml version="1.0" encoding="UTF-8" standalone="no"?>
<!-- Created with Inkscape (http://www.inkscape.org/) -->

<svg
   width="1000"
   height="2000.0001"
   viewBox="0 0 264.58334 529.16669"
   version="1.1"
   id="svg12442"
   xmlns="http://www.w3.org/2000/svg"
   xmlns:svg="http://www.w3.org/2000/svg">
  <defs
     id="defs12439" />
  <g
     id="layer1">
    <path
       style="fill:#ff7a1a;stroke:#808080;stroke-width:0.521376;stroke-linecap:round;stroke-linejoin:round;stroke-dasharray:none;stroke-opacity:0.1"
       d="M -36.444007,48.639943 36.444011,121.73689"
       id="path12619" />
    <path
       style="fill:#4d4d4d;stroke:#808080;stroke-width:0.521376;stroke-linecap:round;stroke-linejoin:round;stroke-dasharray:none;stroke-opacity:0.1"
       d="m -2e-7,32.976261 c 0,104.319829 0,104.319829 0,104.319829"
       id="path14612" />
    <path
       style="fill:#4d4d4d;stroke:#808080;stroke-width:0.521376;stroke-linecap:round;stroke-linejoin:round;stroke-dasharray:none;stroke-opacity:0.1"
       d="m 52.010857,84.927354 c -34.938076,0 -70.078333,4e-6 -104.021714,0 v 0"
       id="path14614" />
    <path
       style="fill:#4d4d4d;stroke:#808080;stroke-width:0.521376;stroke-linecap:round;stroke-linejoin:round;stroke-dasharray:none;stroke-opacity:0.1"
       d="M -36.444007,121.73689 36.444011,48.639943"
       id="path14616" />
    <path
       style="fill:none;stroke:#808080;stroke-width:0.521376;stroke-linecap:round;stroke-linejoin:round;stroke-dasharray:none;stroke-opacity:0.1"
       d="M -46.856582,85.188412 C -30.939757,81.724355 -26.198,70.979275 -31.23772,53.861153 -19.466224,58.357359 -6.8188801,52.409726 -1.9999999e-7,38.197523 6.9305233,51.296834 20.692283,52.297788 31.237715,53.861153 25.57361,73.758413 38.734861,76.356615 46.856586,85.188413 31.849588,88.723348 25.706676,98.505643 31.237715,116.51567 20.615229,111.0522 10.216268,116.96647 -1.9999999e-7,132.17929 -10.077563,117.29541 -20.448938,110.8859 -31.23772,116.51567 -26.013778,106.059 -31.26957,95.61665 -46.856582,85.188412 Z"
       id="path14778" />
    <path
       style="fill:none;stroke:#808080;stroke-width:0.521376;stroke-linecap:round;stroke-linejoin:round;stroke-dasharray:none;stroke-opacity:0.1"
       d="M -31.23772,85.188412 C -20.124969,77.881116 -17.751888,70.96916 -20.825146,64.303574 -14.892689,65.945624 -8.9082481,67.323816 -2e-7,53.861153 0.1874378,58.025883 8.2791075,67.919557 20.825147,64.303574 16.32784,75.434412 25.388038,79.471486 31.237715,85.188412 18.417247,93.624984 18.794934,99.979463 20.825147,106.07325 13.789936,102.48163 6.8523812,106.27723 -2e-7,116.51567 -5.9922361,108.68812 -12.14294,101.58604 -20.825146,106.07325 c 3.25585,-13.459004 0.38241,-20.997671 -10.412574,-20.884838"
       id="path14780" />
    <path
       style="fill:none;stroke:#808080;stroke-width:0.521376;stroke-linecap:round;stroke-linejoin:round;stroke-dasharray:none;stroke-opacity:0.1"
       d="m -15.618859,85.188412 c 5.332331,-3.539153 6.8711349,-7.016772 5.206286,-10.442418 3.8352719,2.054803 7.2120739,-0.665137 10.4125728,-5.22121 3.2577354,4.708272 6.673629,7.214114 10.4125772,5.22121 -1.1625235,3.113414 -0.9709975,6.398492 5.206283,10.442418 -4.767857,3.295747 -7.1616015,6.736381 -5.206283,10.442424 C 7.3508655,94.557565 4.1399981,94.510041 -2e-7,100.85204 -3.2843121,96.07562 -6.7141491,93.667639 -10.412573,95.630836 c 1.1132789,-3.089991 1.0494809,-6.341459 -5.206286,-10.442424 z"
       id="path14782" />
    <path
       style="fill:#ff7a1a;stroke:#808080;stroke-width:0.331056;stroke-linecap:round;stroke-linejoin:round;stroke-dasharray:none;stroke-opacity:0.1"
       d="m 241.35959,-23.256721 46.11642,46.580017"
       id="path12619-4" />
    <path
       style="fill:#4d4d4d;stroke:#808080;stroke-width:0.331056;stroke-linecap:round;stroke-linejoin:round;stroke-dasharray:none;stroke-opacity:0.1"
       d="m 264.4178,-33.238185 c 0,66.47637 0,66.47637 0,66.47637"
       id="path14612-3" />
    <path
       style="fill:#4d4d4d;stroke:#808080;stroke-width:0.331056;stroke-linecap:round;stroke-linejoin:round;stroke-dasharray:none;stroke-opacity:0.1"
       d="m 297.29225,0.03328517 c -22.1054,0 -44.33872,3e-6 -65.81478,0 v 0"
       id="path14614-85" />
    <path
       style="fill:#4d4d4d;stroke:#808080;stroke-width:0.331056;stroke-linecap:round;stroke-linejoin:round;stroke-dasharray:none;stroke-opacity:0.1"
       d="M 241.35959,23.323296 287.47601,-23.25672"
       id="path14616-78" />
    <path
       style="fill:none;stroke:#808080;stroke-width:0.331056;stroke-linecap:round;stroke-linejoin:round;stroke-dasharray:none;stroke-opacity:0.1"
       d="m 234.77153,0.03328517 c 10.07061,-2.20742297 13.07073,-9.05457697 9.88209,-19.96286117 7.44786,2.865145 15.44986,-0.924902 19.76418,-9.981432 4.38496,8.347355 13.09205,8.985199 19.76418,9.981431 -3.5837,12.6792532 4.74346,14.3349212 9.88209,19.96286217 -9.49496,2.25258803 -13.3816,8.48622113 -9.88209,19.96286383 -6.72088,-3.481523 -13.30032,0.287268 -19.76418,9.981428 -6.3761,-9.484545 -12.93809,-13.568918 -19.76418,-9.981428 3.3052,-6.663367 -0.0202,-13.3176108 -9.88209,-19.96286383 z"
       id="path14778-2" />
    <path
       style="fill:none;stroke:#808080;stroke-width:0.331056;stroke-linecap:round;stroke-linejoin:round;stroke-dasharray:none;stroke-opacity:0.1"
       d="m 244.65362,0.03328517 c 7.03107,-4.65647297 8.53252,-9.06102197 6.58806,-13.30857417 3.75348,1.046373 7.53985,1.924607 13.17612,-6.654288 0.11859,2.653916 5.23821,8.958522 13.17612,6.654288 -2.84546,7.0929722 2.88695,9.6655422 6.58806,13.30857417 -8.11155,5.37608803 -7.87258,9.42539413 -6.58806,13.30857483 -4.4512,-2.28871 -8.8406,0.129985 -13.17612,6.654289 -3.7913,-4.987998 -7.68287,-9.513701 -13.17612,-6.654289 2.05999,-8.5765648 0.24195,-13.38047683 -6.58806,-13.30857483"
       id="path14780-6" />
    <path
       style="fill:none;stroke:#808080;stroke-width:0.331056;stroke-linecap:round;stroke-linejoin:round;stroke-dasharray:none;stroke-opacity:0.1"
       d="m 254.53571,0.03328517 c 3.37378,-2.25527697 4.34739,-4.47134097 3.29403,-6.65428697 2.42659,1.309395 4.5631,-0.423849 6.58806,-3.3271427 2.06118,3.0002807 4.22242,4.5970927 6.58806,3.3271427 -0.73553,1.983981 -0.61435,4.077351 3.29403,6.65428697 -3.01664,2.10016903 -4.53117,4.29266303 -3.29403,6.65429003 -1.93715,-0.683924 -3.96867,-0.714212 -6.58806,3.3271418 -2.07799,-3.0437108 -4.24806,-4.5781618 -6.58806,-3.3271418 0.70438,-1.969052 0.66401,-4.041007 -3.29403,-6.65429003 z"
       id="path14782-5" />
    <path
       style="fill:#ff7a1a;stroke:#808080;stroke-width:0.331056;stroke-linecap:round;stroke-linejoin:round;stroke-dasharray:none;stroke-opacity:0.1"
       d="m 241.35959,505.90993 46.11642,46.58002"
       id="path12619-4-9" />
    <path
       style="fill:#4d4d4d;stroke:#808080;stroke-width:0.331056;stroke-linecap:round;stroke-linejoin:round;stroke-dasharray:none;stroke-opacity:0.1"
       d="m 264.4178,495.92847 c 0,66.47638 0,66.47638 0,66.47638"
       id="path14612-3-0" />
    <path
       style="fill:#4d4d4d;stroke:#808080;stroke-width:0.331056;stroke-linecap:round;stroke-linejoin:round;stroke-dasharray:none;stroke-opacity:0.1"
       d="m 297.29225,529.19995 c -22.1054,0 -44.33872,0 -65.81478,0 v 0"
       id="path14614-85-3" />
    <path
       style="fill:#4d4d4d;stroke:#808080;stroke-width:0.331056;stroke-linecap:round;stroke-linejoin:round;stroke-dasharray:none;stroke-opacity:0.1"
       d="m 241.35959,552.48995 46.11642,-46.58002"
       id="path14616-78-0" />
    <path
       style="fill:none;stroke:#808080;stroke-width:0.331056;stroke-linecap:round;stroke-linejoin:round;stroke-dasharray:none;stroke-opacity:0.1"
       d="m 234.77153,529.19995 c 10.07061,-2.20742 13.07073,-9.05458 9.88209,-19.96286 7.44786,2.86514 15.44986,-0.92491 19.76418,-9.98144 4.38496,8.34735 13.09205,8.98519 19.76418,9.98144 -3.5837,12.67925 4.74346,14.33492 9.88209,19.96286 -9.49496,2.25259 -13.3816,8.48622 -9.88209,19.96286 -6.72088,-3.48153 -13.30032,0.28727 -19.76418,9.98143 -6.3761,-9.48454 -12.93809,-13.56892 -19.76418,-9.98143 3.3052,-6.66337 -0.0202,-13.31761 -9.88209,-19.96286 z"
       id="path14778-2-1" />
    <path
       style="fill:none;stroke:#808080;stroke-width:0.331056;stroke-linecap:round;stroke-linejoin:round;stroke-dasharray:none;stroke-opacity:0.1"
       d="m 244.65362,529.19995 c 7.03107,-4.65647 8.53252,-9.06102 6.58806,-13.30858 3.75348,1.04638 7.53985,1.92461 13.17612,-6.65428 0.11859,2.65391 5.23821,8.95852 13.17612,6.65428 -2.84546,7.09298 2.88695,9.66555 6.58806,13.30858 -8.11155,5.37609 -7.87258,9.42539 -6.58806,13.30857 -4.4512,-2.28871 -8.8406,0.12999 -13.17612,6.65429 -3.7913,-4.98801 -7.68287,-9.5137 -13.17612,-6.65429 2.05999,-8.57656 0.24195,-13.38047 -6.58806,-13.30857"
       id="path14780-6-0" />
    <path
       style="fill:none;stroke:#808080;stroke-width:0.331056;stroke-linecap:round;stroke-linejoin:round;stroke-dasharray:none;stroke-opacity:0.1"
       d="m 254.53571,529.19995 c 3.37378,-2.25528 4.34739,-4.47134 3.29403,-6.65429 2.42659,1.3094 4.5631,-0.42385 6.58806,-3.32714 2.06118,3.00028 4.22242,4.59709 6.58806,3.32714 -0.73553,1.98398 -0.61435,4.07735 3.29403,6.65429 -3.01664,2.10017 -4.53117,4.29266 -3.29403,6.65429 -1.93715,-0.68394 -3.96867,-0.71421 -6.58806,3.32713 -2.07799,-3.04371 -4.24806,-4.57816 -6.58806,-3.32713 0.70438,-1.96906 0.66401,-4.04102 -3.29403,-6.65429 z"
       id="path14782-5-7" />
    <path
       style="fill:#ff7a1a;stroke:#808080;stroke-width:0.596673;stroke-linecap:round;stroke-linejoin:round;stroke-dasharray:none;stroke-opacity:0.1"
       d="m 218.91672,172.96983 91.33323,76.40057"
       id="path12619-9" />
    <path
       style="fill:#4d4d4d;stroke:#808080;stroke-width:0.596673;stroke-linecap:round;stroke-linejoin:round;stroke-dasharray:none;stroke-opacity:0.1"
       d="m 264.58333,156.59823 c 0,109.03457 0,109.03457 0,109.03457"
       id="path14612-6" />
    <path
       style="fill:#4d4d4d;stroke:#808080;stroke-width:0.596673;stroke-linecap:round;stroke-linejoin:round;stroke-dasharray:none;stroke-opacity:0.1"
       d="m 329.69095,211.17011 c -43.7796,0 -87.81252,0 -130.34569,0 v 0"
       id="path14614-0" />
    <path
       style="fill:#4d4d4d;stroke:#808080;stroke-width:0.596673;stroke-linecap:round;stroke-linejoin:round;stroke-dasharray:none;stroke-opacity:0.1"
       d="m 218.91672,249.3704 91.33323,-76.40057"
       id="path14616-7" />
    <path
       style="fill:none;stroke:#808080;stroke-width:0.596673;stroke-linecap:round;stroke-linejoin:round;stroke-dasharray:none;stroke-opacity:0.1"
       d="m 205.86912,211.17011 c 19.94477,-3.62062 25.88649,-14.85132 19.57141,-32.7431 14.75042,4.69942 30.59832,-1.51702 39.1428,-16.37155 8.68439,13.69134 25.92873,14.73753 39.14282,16.37155 -7.09749,20.79652 9.39438,23.51214 19.57141,32.7431 -18.80471,3.69469 -26.50216,13.91911 -19.57141,32.74309 -13.31065,-5.71039 -26.34119,0.47118 -39.14282,16.37155 -12.62781,-15.55655 -25.62379,-22.25575 -39.1428,-16.37155 6.54592,-10.92925 -0.04,-21.84355 -19.57141,-32.74309 z"
       id="path14778-7" />
    <path
       style="fill:none;stroke:#808080;stroke-width:0.596673;stroke-linecap:round;stroke-linejoin:round;stroke-dasharray:none;stroke-opacity:0.1"
       d="m 225.44053,211.17011 c 13.92497,-7.63755 16.89858,-14.86189 13.0476,-21.82872 7.43375,1.71625 14.93262,3.15673 26.0952,-10.91438 0.23488,4.35296 10.37424,14.69378 26.09522,10.91438 -5.63541,11.63389 5.71759,15.85342 13.0476,21.82872 -16.06485,8.81786 -15.59159,15.45954 -13.0476,21.82873 -8.81556,-3.75395 -17.50875,0.2132 -26.09522,10.91436 -7.50864,-8.18131 -15.21586,-15.60438 -26.0952,-10.91436 4.07979,-14.06729 0.47918,-21.94666 -13.0476,-21.82873"
       id="path14780-0" />
    <path
       style="fill:none;stroke:#808080;stroke-width:0.596673;stroke-linecap:round;stroke-linejoin:round;stroke-dasharray:none;stroke-opacity:0.1"
       d="m 245.01193,211.17011 c 6.68175,-3.69911 8.60996,-7.33389 6.52381,-10.91436 4.80583,2.14767 9.03717,-0.6952 13.04759,-5.45719 4.08215,4.92106 8.36248,7.54015 13.04762,5.45719 -1.45672,3.25412 -1.21672,6.68767 6.52379,10.91436 -5.97442,3.4447 -8.97394,7.04082 -6.52379,10.91437 -3.83652,-1.12177 -7.85994,-1.17145 -13.04762,5.45718 -4.11544,-4.9923 -8.41324,-7.50911 -13.04759,-5.45718 1.39501,-3.22965 1.31505,-6.62807 -6.52381,-10.91437 z"
       id="path14782-3" />
    <path
       style="fill:#ff7a1a;stroke:#808080;stroke-width:1.00262;stroke-linecap:round;stroke-linejoin:round;stroke-dasharray:none;stroke-opacity:0.1"
       d="M -73.755644,316.50077 72.753027,450.98307"
       id="path12619-7" />
    <path
       style="fill:#4d4d4d;stroke:#808080;stroke-width:1.00262;stroke-linecap:round;stroke-linejoin:round;stroke-dasharray:none;stroke-opacity:0.1"
       d="m -0.50130999,287.68305 c 0,191.92555 0,191.92555 0,191.92555"
       id="path14612-8" />
    <path
       style="fill:#4d4d4d;stroke:#808080;stroke-width:1.00262;stroke-linecap:round;stroke-linejoin:round;stroke-dasharray:none;stroke-opacity:0.1"
       d="m 103.93855,383.74191 c -70.22735,0 -140.861069,2e-5 -209.08901,0 v 0"
       id="path14614-8" />
    <path
       style="fill:#4d4d4d;stroke:#808080;stroke-width:1.00262;stroke-linecap:round;stroke-linejoin:round;stroke-dasharray:none;stroke-opacity:0.1"
       d="M -73.755644,450.98307 72.753027,316.50077"
       id="path14616-3" />
    <path
       style="fill:none;stroke:#808080;stroke-width:1.00262;stroke-linecap:round;stroke-linejoin:round;stroke-dasharray:none;stroke-opacity:0.1"
       d="m -94.685451,383.74191 c 31.993633,-6.37308 41.52481,-26.14168 31.394713,-57.63526 23.661313,8.27203 49.083128,-2.6703 62.78942801,-28.81763 C 13.4294,321.38886 41.091242,323.2304 62.288105,326.10665 c -11.385143,36.60658 15.069639,41.38671 31.394749,57.63526 -30.164853,6.5035 -42.512425,24.50078 -31.394749,57.63527 -21.351749,-10.05159 -42.25419,0.82938 -62.78941499,28.81763 C -20.757731,442.81175 -41.60473,431.01966 -63.290738,441.37718 c 10.500391,-19.23796 -0.06403,-38.44959 -31.394713,-57.63527 z"
       id="path14778-72" />
    <path
       style="fill:none;stroke:#808080;stroke-width:1.00262;stroke-linecap:round;stroke-linejoin:round;stroke-dasharray:none;stroke-opacity:0.1"
       d="m -63.290738,383.74191 c 22.337202,-13.44381 27.107217,-26.16029 20.929809,-38.42351 11.924546,3.02101 23.953583,5.55659 41.85961901,-19.21175 0.376759,7.6622 16.64143299,25.86437 41.85962099,19.21175 -9.03983,20.4783 9.171643,27.90564 20.929794,38.42351 C 36.5183,399.26335 37.277479,410.9542 41.358311,422.16543 27.217167,415.55764 13.272329,422.54069 -0.50130999,441.37718 -12.546013,426.97621 -24.909246,413.90995 -42.360929,422.16543 c 6.544426,-24.76162 0.768663,-38.63112 -20.929809,-38.42352"
       id="path14780-08" />
    <path
       style="fill:none;stroke:#808080;stroke-width:1.00262;stroke-linecap:round;stroke-linejoin:round;stroke-dasharray:none;stroke-opacity:0.1"
       d="m -31.896022,383.74191 c 10.71826,-6.51126 13.811336,-12.90931 10.464901,-19.21175 7.709097,3.78039 14.496644,-1.2237 20.92981101,-9.60587 6.54821099,8.66219 13.41433699,13.27237 20.92980999,9.60587 -2.336727,5.72801 -1.951746,11.77182 10.464897,19.21175 -9.583636,6.06346 -14.395179,12.39347 -10.464897,19.21176 -6.154199,-1.97457 -12.608203,-2.062 -20.92980999,9.60588 -6.60163701,-8.78757 -13.49578601,-13.21772 -20.92981101,-9.60588 2.23775,-5.6849 2.109512,-11.66687 -10.464901,-19.21176 z"
       id="path14782-32" />
  </g>
</svg>
