<?xml version="1.0" encoding="UTF-8" standalone="no"?>
<!-- Created with Inkscape (http://www.inkscape.org/) -->

<svg
   width="1000"
   height="2000.0001"
   viewBox="0 0 264.58334 529.16669"
   version="1.1"
   id="svg12442"
   xmlns="http://www.w3.org/2000/svg"
   xmlns:svg="http://www.w3.org/2000/svg">
  <defs
     id="defs12439" />
  <g
     id="layer1">
    <path
       style="fill:#ff7a1a;stroke:#808080;stroke-width:0.596237;stroke-linecap:round;stroke-linejoin:round;stroke-dasharray:none;stroke-opacity:0.1"
       d="M -41.438323,50.927353 42.034565,134.40028"
       id="path12619" />
    <path
       style="fill:#4d4d4d;stroke:#808080;stroke-width:0.596237;stroke-linecap:round;stroke-linejoin:round;stroke-dasharray:none;stroke-opacity:0.1"
       d="m 0.2981185,33.040238 c 0,119.127852 0,119.127852 0,119.127852"
       id="path14612" />
    <path
       style="fill:#4d4d4d;stroke:#808080;stroke-width:0.596237;stroke-linecap:round;stroke-linejoin:round;stroke-dasharray:none;stroke-opacity:0.1"
       d="m 59.862045,92.365697 c -40.011818,0 -80.255179,5e-6 -119.127852,0 v 0"
       id="path14614" />
    <path
       style="fill:#4d4d4d;stroke:#808080;stroke-width:0.596237;stroke-linecap:round;stroke-linejoin:round;stroke-dasharray:none;stroke-opacity:0.1"
       d="M -41.438323,134.40028 42.034565,50.927353"
       id="path14616" />
    <path
       style="fill:none;stroke:#808080;stroke-width:0.596237;stroke-linecap:round;stroke-linejoin:round;stroke-dasharray:none;stroke-opacity:0.1"
       d="m -53.363023,92.663812 c 18.228282,-3.955774 23.658642,-16.226099 17.887049,-35.774108 13.480964,5.134435 27.9649685,-1.657454 35.7740925,-17.887055 7.936981,14.958736 23.6972375,16.101773 35.7740865,17.887055 -6.486651,22.721641 8.58589,25.688653 17.88706,35.774109 -17.18633,4.036713 -24.221321,15.207587 -17.88706,35.774107 -12.165093,-6.239 -24.074202,0.51479 -35.7740865,17.88705 -11.5410365,-16.99662 -23.4185525,-24.31595 -35.7740925,-17.88705 5.982568,-11.94097 -0.03647,-23.8656 -17.887049,-35.774108 z"
       id="path14778" />
    <path
       style="fill:none;stroke:#808080;stroke-width:0.596237;stroke-linecap:round;stroke-linejoin:round;stroke-dasharray:none;stroke-opacity:0.1"
       d="m -35.475974,92.663812 c 12.726556,-8.344554 15.444258,-16.23765 11.924698,-23.849404 6.793975,1.875136 13.6474825,3.44896 23.8493945,-11.924704 0.214658,4.755906 9.481408,16.053969 23.8493955,11.924704 -5.150409,12.710841 5.225519,17.32097 11.924691,23.849404 -14.682269,9.634128 -14.249733,16.890618 -11.924691,23.849408 -8.056871,-4.10145 -16.0019045,0.23293 -23.8493955,11.9247 -6.862434,-8.93865 -13.9063495,-17.04886 -23.8493945,-11.9247 3.728668,-15.36949 0.437944,-23.978258 -11.924698,-23.849408"
       id="path14780" />
    <path
       style="fill:none;stroke:#808080;stroke-width:0.596237;stroke-linecap:round;stroke-linejoin:round;stroke-dasharray:none;stroke-opacity:0.1"
       d="m -17.588926,92.663812 c 6.106697,-4.04153 7.8689675,-8.012791 5.962347,-11.924701 4.3922345,2.346479 8.2594195,-0.759552 11.9246975,-5.962351 3.730827,5.376602 7.64278,8.238144 11.9247015,5.962351 -1.331346,3.555358 -1.112006,7.306747 5.962345,11.924701 -5.46025,3.763572 -8.2016165,7.692598 -5.962345,11.924708 -3.5063355,-1.22562 -7.1834885,-1.27989 -11.9247015,5.96235 -3.761263,-5.45443 -7.689184,-8.20422 -11.9246975,-5.96235 1.274951,-3.52861 1.201888,-7.241618 -5.962347,-11.924708 z"
       id="path14782" />
    <path
       style="fill:#ff7a1a;stroke:#808080;stroke-width:0.331056;stroke-linecap:round;stroke-linejoin:round;stroke-dasharray:none;stroke-opacity:0.1"
       d="M 241.55806,8.2944638 287.67448,54.874481"
       id="path12619-4" />
    <path
       style="fill:#4d4d4d;stroke:#808080;stroke-width:0.331056;stroke-linecap:round;stroke-linejoin:round;stroke-dasharray:none;stroke-opacity:0.1"
       d="m 264.61627,-1.687001 c 0,66.476371 0,66.476371 0,66.476371"
       id="path14612-3" />
    <path
       style="fill:#4d4d4d;stroke:#808080;stroke-width:0.331056;stroke-linecap:round;stroke-linejoin:round;stroke-dasharray:none;stroke-opacity:0.1"
       d="m 297.49072,31.58447 c -22.1054,0 -44.33872,3e-6 -65.81478,0 v 0"
       id="path14614-85" />
    <path
       style="fill:#4d4d4d;stroke:#808080;stroke-width:0.331056;stroke-linecap:round;stroke-linejoin:round;stroke-dasharray:none;stroke-opacity:0.1"
       d="M 241.55806,54.874481 287.67448,8.2944638"
       id="path14616-78" />
    <path
       style="fill:none;stroke:#808080;stroke-width:0.331056;stroke-linecap:round;stroke-linejoin:round;stroke-dasharray:none;stroke-opacity:0.1"
       d="m 234.97,31.58447 c 10.07061,-2.207423 13.07073,-9.054577 9.88209,-19.962862 7.44786,2.865145 15.44986,-0.924902 19.76418,-9.9814323 4.38496,8.347355 13.09205,8.9851993 19.76418,9.9814323 -3.5837,12.679253 4.74346,14.334921 9.88209,19.962862 -9.49496,2.252588 -13.3816,8.486221 -9.88209,19.962864 -6.72088,-3.481523 -13.30032,0.287268 -19.76418,9.981428 -6.3761,-9.484545 -12.93809,-13.568918 -19.76418,-9.981428 3.3052,-6.663367 -0.0202,-13.317611 -9.88209,-19.962864 z"
       id="path14778-2" />
    <path
       style="fill:none;stroke:#808080;stroke-width:0.331056;stroke-linecap:round;stroke-linejoin:round;stroke-dasharray:none;stroke-opacity:0.1"
       d="m 244.85209,31.58447 c 7.03107,-4.656473 8.53252,-9.061022 6.58806,-13.308574 3.75348,1.046373 7.53985,1.924607 13.17612,-6.654288 0.11859,2.653916 5.23821,8.958522 13.17612,6.654288 -2.84546,7.092972 2.88695,9.665542 6.58806,13.308574 -8.11155,5.376088 -7.87258,9.425394 -6.58806,13.308575 -4.4512,-2.28871 -8.8406,0.129985 -13.17612,6.654289 -3.7913,-4.987998 -7.68287,-9.513701 -13.17612,-6.654289 2.05999,-8.576565 0.24195,-13.380477 -6.58806,-13.308575"
       id="path14780-6" />
    <path
       style="fill:none;stroke:#808080;stroke-width:0.331056;stroke-linecap:round;stroke-linejoin:round;stroke-dasharray:none;stroke-opacity:0.1"
       d="m 254.73418,31.58447 c 3.37378,-2.255277 4.34739,-4.471341 3.29403,-6.654287 2.42659,1.309395 4.5631,-0.423849 6.58806,-3.327143 2.06118,3.000281 4.22242,4.597093 6.58806,3.327143 -0.73553,1.983981 -0.61435,4.077351 3.29403,6.654287 -3.01664,2.100169 -4.53117,4.292663 -3.29403,6.65429 -1.93715,-0.683924 -3.96867,-0.714212 -6.58806,3.327142 -2.07799,-3.043711 -4.24806,-4.578162 -6.58806,-3.327142 0.70438,-1.969052 0.66401,-4.041007 -3.29403,-6.65429 z"
       id="path14782-5" />
    <path
       style="fill:#ff7a1a;stroke:#808080;stroke-width:0.737366;stroke-linecap:round;stroke-linejoin:round;stroke-dasharray:none;stroke-opacity:0.1"
       d="m 209.80039,202.46356 108.82854,97.92116"
       id="path12619-9" />
    <path
       style="fill:#4d4d4d;stroke:#808080;stroke-width:0.737366;stroke-linecap:round;stroke-linejoin:round;stroke-dasharray:none;stroke-opacity:0.1"
       d="m 264.21465,181.48039 c 0,139.74755 0,139.74755 0,139.74755"
       id="path14612-6" />
    <path
       style="fill:#4d4d4d;stroke:#808080;stroke-width:0.737366;stroke-linecap:round;stroke-linejoin:round;stroke-dasharray:none;stroke-opacity:0.1"
       d="m 341.79394,251.42413 c -52.16578,0 -104.63342,0 -155.31402,0 v 0"
       id="path14614-0" />
    <path
       style="fill:#4d4d4d;stroke:#808080;stroke-width:0.737366;stroke-linecap:round;stroke-linejoin:round;stroke-dasharray:none;stroke-opacity:0.1"
       d="M 209.80039,300.38472 318.62893,202.46356"
       id="path14616-7" />
    <path
       style="fill:none;stroke:#808080;stroke-width:0.737366;stroke-linecap:round;stroke-linejoin:round;stroke-dasharray:none;stroke-opacity:0.1"
       d="m 194.25345,251.42413 c 23.76529,-4.64048 30.84518,-19.03465 23.32041,-41.96621 17.57593,6.02316 36.45958,-1.94433 46.64079,-20.9831 10.34793,17.54792 30.8955,18.88881 46.64081,20.9831 -8.45704,26.65451 11.19392,30.13507 23.32041,41.96621 -22.40684,4.73542 -31.57877,17.83986 -23.32041,41.96621 -15.86036,-7.3189 -31.38697,0.6039 -46.64081,20.9831 -15.04672,-19.93854 -30.53215,-28.52477 -46.64079,-20.9831 7.79983,-14.00782 -0.0476,-27.99647 -23.32041,-41.96621 z"
       id="path14778-7" />
    <path
       style="fill:none;stroke:#808080;stroke-width:0.737366;stroke-linecap:round;stroke-linejoin:round;stroke-dasharray:none;stroke-opacity:0.1"
       d="m 217.57386,251.42413 c 16.59237,-9.7889 20.13559,-19.0482 15.54693,-27.97746 8.85772,2.19969 17.79303,4.04593 31.09386,-13.98875 0.27987,5.57911 12.36148,18.83274 31.09388,13.98875 -6.7149,14.91094 6.81282,20.31903 15.54693,27.97746 -19.14215,11.30169 -18.57823,19.8142 -15.54693,27.97748 -10.50422,-4.81137 -20.86263,0.27325 -31.09388,13.98873 -8.94695,-10.48584 -18.13053,-19.99984 -31.09386,-13.98873 4.86129,-18.02978 0.57097,-28.12863 -15.54693,-27.97748"
       id="path14780-0" />
    <path
       style="fill:none;stroke:#808080;stroke-width:0.737366;stroke-linecap:round;stroke-linejoin:round;stroke-dasharray:none;stroke-opacity:0.1"
       d="m 240.89426,251.42413 c 7.96167,-4.74107 10.25924,-9.39971 7.77347,-13.98873 5.72641,2.75263 10.76829,-0.89102 15.54692,-6.99437 4.86411,6.30723 9.96435,9.66407 15.54695,6.99437 -1.73576,4.17075 -1.44979,8.57147 7.77346,13.98873 -7.11885,4.41501 -10.69294,9.02409 -7.77346,13.98875 -4.57142,-1.43776 -9.36554,-1.50143 -15.54695,6.99436 -4.90377,-6.39854 -10.02484,-9.62428 -15.54692,-6.99436 1.66223,-4.13938 1.56696,-8.49507 -7.77347,-13.98875 z"
       id="path14782-3" />
    <path
       style="fill:#ff7a1a;stroke:#808080;stroke-width:1.2161;stroke-linecap:round;stroke-linejoin:round;stroke-dasharray:none;stroke-opacity:0.1"
       d="M -91.036846,331.22506 91.29732,490.19939"
       id="path12619-7" />
    <path
       style="fill:#4d4d4d;stroke:#808080;stroke-width:1.2161;stroke-linecap:round;stroke-linejoin:round;stroke-dasharray:none;stroke-opacity:0.1"
       d="m 0.13023501,297.15904 c 0,226.87918 0,226.87918 0,226.87918"
       id="path14612-8" />
    <path
       style="fill:#4d4d4d;stroke:#808080;stroke-width:1.2161;stroke-linecap:round;stroke-linejoin:round;stroke-dasharray:none;stroke-opacity:0.1"
       d="m 130.10858,410.71221 c -87.399913,0 -175.305565,3e-5 -260.21716,0 v 0"
       id="path14614-8" />
    <path
       style="fill:#4d4d4d;stroke:#808080;stroke-width:1.2161;stroke-linecap:round;stroke-linejoin:round;stroke-dasharray:none;stroke-opacity:0.1"
       d="M -91.036846,490.19939 91.29732,331.22506"
       id="path14616-3" />
    <path
       style="fill:none;stroke:#808080;stroke-width:1.2161;stroke-linecap:round;stroke-linejoin:round;stroke-dasharray:none;stroke-opacity:0.1"
       d="m -117.08458,410.71221 c 39.816977,-7.53375 51.678795,-30.90262 39.071604,-68.13183 29.447171,9.77854 61.085335,-3.15662 78.14321101,-34.06592 C 17.467396,337.00338 51.893337,339.1803 78.27343,342.58038 64.1043,385.85377 97.02802,391.50446 117.34508,410.71221 79.80407,418.40014 64.43717,439.6751 78.27343,478.84406 51.700578,466.96187 25.686901,479.82449 0.13023501,512.90998 -25.079451,480.5399 -51.024128,466.60022 -78.012976,478.84406 -64.944943,456.10247 -78.092656,433.392 -117.08458,410.71221 Z"
       id="path14778-72" />
    <path
       style="fill:none;stroke:#808080;stroke-width:1.2161;stroke-linecap:round;stroke-linejoin:round;stroke-dasharray:none;stroke-opacity:0.1"
       d="m -78.012976,410.71221 c 27.799277,-15.8922 33.735695,-30.92462 26.047737,-45.42122 14.840433,3.57119 29.810908,6.56856 52.09547401,-22.71061 0.468888,9.05764 20.71073199,30.5748 52.09547699,22.71061 C 40.97539,389.49881 63.64008,398.27882 78.27343,410.71221 46.202183,429.06043 47.147002,442.88043 52.225712,456.13346 34.62666,448.32225 17.271917,456.57706 0.13023501,478.84406 -14.859736,461.82038 -30.246128,446.37448 -51.965239,456.13346 c 8.144723,-29.27123 0.956623,-45.66665 -26.047737,-45.42125"
       id="path14780-08" />
    <path
       style="fill:none;stroke:#808080;stroke-width:1.2161;stroke-linecap:round;stroke-linejoin:round;stroke-dasharray:none;stroke-opacity:0.1"
       d="m -38.941368,410.71221 c 13.339177,-7.69709 17.188597,-15.26036 13.023865,-22.7106 9.594188,4.46887 18.041481,-1.44657 26.04773801,-11.3553 8.14943299,10.23975 16.69452099,15.68954 26.04773799,11.3553 -2.908122,6.77119 -2.429002,13.91571 13.023859,22.7106 -11.927105,7.16774 -17.915205,14.65058 -13.023859,22.71063 C 18.5189,431.08865 10.48671,430.9853 0.13023501,444.77814 -8.085688,434.39017 -16.66565,429.1532 -25.917503,433.42284 c 2.784942,-6.72024 2.625347,-13.79166 -13.023865,-22.71063 z"
       id="path14782-32" />
  </g>
</svg>
